<?xml version="1.0" encoding="UTF-8"?> <svg xmlns="http://www.w3.org/2000/svg" id="_レイヤー_1" data-name="レイヤー_1" version="1.1" viewBox="-72.8700 0.0000 816.0800 408.0400"><defs><style> .st0 { fill: #364959; } .st1 { fill: #72a6c5; } .st2 { fill: #728a97; } .st3 { fill: #708896; } .st4 { fill: #475b6b; } .st5 { fill: #57707f; } .st6 { fill: #76aac8; } .st7 { fill: #9cacb2; } </style></defs><path class="st3" d="M563.54,31.49c-2.51-1.06-4.31-3.72-6.64-5.11-20.29-12.11-48.56,6.16-45.31,29.31.07.49,1.31,5.06,1.46,5.29.04.06.81.04,1.2.53,2.75,3.42,4.19,4.53,8.31,6.21,3.83,1.56,7.4,1.93,11.48,1.77.28,1.52-.76.96-1.73,1-4.48.19-7.57-.91-11.77-2,.52,1.23-.6,4.04-.45,4.72.17.82,1.93.35,1.45,1.77-2.38.61-3.11-.83-4.99-1.49.32,1.46,1.45,2.28.99,4-4.52-1.3-2.32-1.27-2.47-3.75-.07-1.13-2.39-1.79-3.22-1.74-.26.02-.29.65-.52.78-.38.23-1.02.15-1.17.33-.3.34.08,2.31-1.11,1.37-.04-.03.14-1-.31-1.03-.67-.06-1.53.75-2.21.33-.51-.31-.75-1.65-1.28-2.26-2.25-2.58-5.22-.89-4.22-.04-.26-.28-2.12-.07-1.52-2.24.13-.49,1.73-.12,2-1.06.21-.76-.77-2.21-.47-3.19.42-.49,4.46,4.04,5.49,4.31,1.15.31,1.81-1.15,3.01-.81-.53,1.76-.26,2.43.51,4,.24.17,2.66-4,4.43-2.43.58.52-.1,3.57,3.58.7s-2.51-5.46-4.54-8.02c-.53-.67-.37-1.6-.47-1.75-.03-.04-.66.09-.82-.16-1.14-1.88-2.58-6.56-2.56-8.68,0-.74.8-1.22.85-1.92.16-1.97.7-6.22-1.98-6.23-.08-2.64-.91-3.68-2.26-1-.93.51-.76-2.09-1.74-.99-.24.26,1.12,2,.01,2.76-2.69,1.85-.88-4.89-4.51-2.77l1-2.5c-2.22.27-1.23-.39-1.5-1.5,1.13-.19,2.87-1,3.77-.95,1.25.07,5.56,2.77,6.49,2.76.4,0,.97-.92,1.99-.83.23.02.32.98.5,1.04,1.65.47,1.08-.72,1.72-1.77,9.11-15.03,28.37-22.37,43.96-12.42,2.34,1.5,4.33,3.26,5.57,5.68ZM511.96,41.07c-.25-.43-3.26-1.33-2.41.65.23.53,2.2,1.6,2.48,1.26-.07-.58.19-1.46-.08-1.92Z"></path><path class="st3" d="M501.04,71.49c.23.2,1.76-.74,2-.5.03.71-.33,1.33-.5,2-1.43-1-.82-.78-1.5-1.5Z"></path><path class="st3" d="M468.04,16.49c.72-1.71,13.97-7.76,16.51-8.74,35.76-13.84,94.65-10.33,121.28,20.22.75.86,2.85,3.63,3.22,4.52,7.29,4.51,19.33,4.47,27.77,7.98,1.69.7,5.27,2.17,5.73,4.02-.31.02-.93.49-1.5.5.33-1.89-.29-1.18-1.09-1.64-7.42-4.22-15.51-4.46-23.63-6.39-.81-.19-6.97-2.75-7.2-3.06-.3-.41.03-1.13-.08-1.4-3.35-2.07-6.52-6.69-9.74-9.51-9.62-8.44-27.97-16.85-40.63-18.87-2.34-.37-5.41,1.07-5.63.88-1.06-.97,1.75-.83.99-2-1.41.52-6.77-1.08-7.49-.5-1.13.9,1.38.81.99,1.74-.46,1.11-2.11,1.06-2.4,1.39-.22.26.12,2.44-1.58,1.36-.28-.17-.64-5.28-2.75-5.53-1.31-.16-2.9.19-4.26.04l.74,2.51c-.45-.24-2.03-.4-2.18-.58-.63-.75,1.17-2.5-2.06-1.93l.5,4.49c-1.09.1-2.15-.67-3.22-.52s-1.47,1.3-2.08,1.41c-.73.14-1.85-.75-2.61-.31-.13.08-1.41,2.44-1.45,2.72-.33,2.49,1.07,3.23,3.36,3.19-1.46-4.83,1.3-.2,2.01-3.49.66-.48,1.82,1.16,1.98,1.76.35,1.31-2.6.7-2.99,1.24s1.23,1.6.96,2.65c-.23.88-3,1.61-1.96,2.84.88,1.04,1.12-2.06,1.99-.99.32.39.23,3.76-.83,4.42-3.58,2.21-4.4-1.3-4.94-1.42-.34-.08-2.87,2.09-3.23.24-.03-.14.91-2.65,1.03-2.73.28-.21,1.74.74,1.97.49-1.15-1.95.48-3.38.5-4.25.05-2.2-4.99-4.76-4.01-7.75-3.63-.56-1.65,2.19-3.25,4l-.75-3.49c-1.44-.47-.93,1.25-1.78,1.43-.57.12-2.63-.6-3.72.07-.97-1.35,2.79-.8,1.5-1.99s-5.63.16-5,2.49c1.2-.51,1.55.91,1.86.99,1.08.26,4.78-.26,5.14.02,1.06.81-1.72,1.29-2.04,1.69-1.62,2.04.42,3.51,2.54,2.3v2s-1.99-1-1.99-1c-.54,2.12-1.73,4.48-3.73,5.52-1.18.61-2.22.4-3.16.81-.81.36-1,2.09-2.61,1.68.19,2.45,3.18,1.51,4.69,1.56.57.02,2.08.67,2.31.44.15-.16-.53-2.6,1.5-1.25,2.14,1.42-2.84,2.58-3,2.76-1.11,1.2,1.42.92,1.5.99.19.18-.45,1.52-.5,2-.39.09-1.4-.12-1.5,0-.16.19.1,1.94,0,2.51,2.29.4,1.31-.79,1.5-2.5,2.5-.61,1.01-2.63,2.34-3.54,1.53-1.05,3.23,1.04,3.66.54.14-.16-.24-1.31.11-1.9.16-.27,1.18-.31,1.36-.9.3-.93-2.05-3.72-.23-3.19.21.06,2.15,1.13,2.26,1.24,1.72,1.8-1.07,2.05-2.01,3.49-.47.73-1.15,3.47-1.5,3.76-1.36,1.13-.48-2.31-1.99-1.49-.62,2.91,1.19,1.69,1.5,2,1.4,1.39-2.36,2.1-2.85,2.65-1.57,1.74-1.36,6.65-1.66,6.85-1.82,1.18-1.39-1.39-1.49-1.5-.16-.17-2.31.79-3,.5.48-3.44-.75-2.3-2.1-3.06-.44-.25-.47-.78-.8-.9-1.24-.46-3.04-.42-4.35-1.05-1.02.84-.24.78.45,1.05s6.27,2.06,3.01,2.94c-1.26.34-3.61-3.03-5.71-1.98l.5,1.99-1.25-1.52-3.24.52.49-2.49c-.36-.36-3.12,1.33-2.49-.24.72-1.8,3.77-2.72,3-5.76.28-.29,4.12,2.7,3-.66-.11-.32-1.51-1.06-2.05-1.56s-.93-1.67-1.03-1.74c-.27-.19-2.63,1.15-2.93-.3-.13-.64,1.53-1.78,1-2.23-.1-.09-1.55-.08-1.89.11-.89.48-1.16,4.32-5.1,2.89l1.49-2.5c-1.64.92-2.76-.36-3.64-.38-1.24-.03-3.06,1.41-3.54,1.32-.73-.12-3.34-3.65-5.82-1.94,1.41,2.86,1.02,4.16,0,6.99,2.33.36,1.1-.56,1.51-1.62.25-.66,1.61.02.49-2.37,2.25-.51,3.36.76,5.23,1.5.9-.22.46-2.88,2.52-2.5.24.04,2.2,4.06,1.76,4.5h-2.01c-.13.13.88,3.38,1.01,3.5,1.41,1.33,1.49-2.94,1.57-3.18.28-.88,2.05-1.19,2.92-1.32.53,1.02-2.01,1.42-.99,2.5.12.13,3.14-.86,3.5-1-.09-.79-1.82-2.69-.23-3,.4-.08,2.62.8,2.73,1.25.29,1.19-1.82,1.49-2.5,1.74.17,1.48-1.25,1.01-1.49,1.79-.3.95.98,1.65.91,2.38-.06.61-.92,1.28-.92,2.1.01,1.05,1.64,1.85,2.22,2.78.24.39.22,1.18.47,1.79.18.43,1.29.28.31,2.66,2.77-.16,2.67-2.94,5.87-3.42,1.44-.21,1.36.31,1.63,1.42-.31.05-1.11-.51-1.67-.38-1.83.42-3.75,5.82-3.24,7.52.24.81,1.77,1.54,1.42,2.87.21.21,3.29-1.05,3.88-1.35s.64-1.13.88-1.17c2.33-.33,2.22,2.53.48,3.51-.58.22-2.64-3.44-2.25,1.5-2.13-1.63-3.21,1.49-2.02,2.27,2.06,1.36,3.99-1.9,4.52-1.27-.91,3.41,4.04,2.57,4-.5-.86-.31-1.86,1.44-2.49,1-.1-.07-.67-2.3-.5-2.48.06-.07,1.16-.02,1.76-.48,1.32-1,2.28-5.04,4.23-5.04.1,3.24-.75,1.46-1.4,2.07-1.87,1.78,2.32,5.8-1.34,8.96-.99.85-2.29-.24-1.76,2.47,1.06.5,2.48-1.78,3.25-.5.46.77.12,1.54-.32,2.19-1.21,1.79-1.48-.15-2.69-.21-.4-.02.08,1.56-1.25,1.01l.5-1.99c-2.05.06-2.4,1.5-2.76-1.01-.36.15-3.26.54-2.24,1.5.12.11,3.83.37,2.5,1.5-.12.1-2.78.45-3.14.4-1.53-.19-3.96-3.37-4.36-2.9-.1.12.21,1.04-.1,1.38-.34.38-1.5,0-1.85.93-.8,2.15.95,2.33.97,2.51.08.61-1.48,4.52.99,2.35,2.17-1.91-.64-4.05-.02-4.66.23-.22,2,.24,2.38.62.59.6.47,1.64.62,2.38,1.35-.1,7.69-1.83,8-1.5,1.54,1.66-3.38,2.44-4.49,1.5v2c-.67-.41-3.36-.4-3.5-.51s.07-1.09,0-1.49c-1.46.1-1.5,1.14-.55,2.3.83,1.01,3.36.46,3.55,1.46.17.89-2.01,2.81-1.45,4.4.08.24,3.32,3.19,3.71,3.33,1.16.42.62-.98.74-1.49,1.31.92,3.09,2.67,3.41,4.37.15.79-.43,1.36-.44,1.86,0,.38,1.46.03,1.02,1.02-3.41,1.54-.21,2.57-.05,3.57.03.17-.86,1.88-.95,3.18-.49.06-1.01-.04-1.5,0-.71.74,1.34,2.19,1.5,0,3.38-.4,1.06-1.68,1.7-2.52.33-.43,1.32-.42,1.75-.78,1.44-1.23,2.72-3.36-.46-2.7.3-1.67.69-2.83,0-4.49,2.68.78,1.64-2.41,4.5-2.5.05,2.32.55,2.8-2,2.5-.42,1.72,2.01.54,2.01,2.25,0,.4-.87.08-1,.59-.34,1.28-.05,2.51-.74,4.2-.55,1.35-2.59,2.37-2.19,4.58.51,2.87,2.55,1.21,2.86,1.42.17.11.31,1.12.77,1.5,1.36,1.12,2.11-.31,3.38-.7.8-.25,5.2-1.17,5.42-1.34.12-.09-1.63-2.96.49-2.49v2.5c.77-.24,1.99-.24,2.63-.53s.04-1.22,1.12-.98c.46.1.07.88.58,1.01,1.76.46,4.29-.45,5.86-.35,1.99.14,5.11,1.82,7.1,2.31,1.82.45-1.14-2.99,1.21-2.47-.69,2.29,1.88,1.99,1.5,4-15.57-3.43-27.83-3.92-40.02,8.23-19.47,19.39-17.02,64.67-25.23,91.27-9.1,29.47-36.76,67.69-61.99,85.51-1.61,1.14-4.31,3-6.25,3-.13-1.12-.96-4.25-2-4.75-5.33-2.58-4.26,9.46-4.57,11.94-6.2,49.27-31.86,91.35-78.44,111.31-.79.34-1.68.66-2.5,1-2.83,1.17-6.27,2.46-9,3.5-2.27.87-3.95.9-6.5,1.5-.91-1.08-3.13-.69-3,1-.46.08-1.03-.08-1.5,0-1.13-.75-4.54-1.14-4,.5-.68.08-1.45.41-2.5.5.32-1.47-2-1.77-2,0-11.87.8-23.04.45-34.26-2.09-2.81-.63-6.77-1.27-9.38-2.52-1.29-.62-2.29-3.24-3.36-.89-.36-.19-.99-.19-1.5-.5-.2-2.11.06-1.19,1.23-1.5,14.17-3.72,28.58-5.14,42.88-9.65,2.98-.94,15.13-4.99,16.16-7.38.7-1.63-.45-3.7-2.4-3.39-1.41.23-6.49,2.87-8.47,3.56-7.56,2.62-15.49,5.45-23.3,7.2-10.21,2.29-20.83,2.55-30.8,6.09-2.58-2.87-2.79-6.87-2.01-10.5,16.04-3.63,35.26-3.35,50.35-10.05,2.53-1.12,6.51-2.41,4.39-5.67-.72-.35-1.48-.29-2.24-.2-3.65.46-11.41,4.41-16.08,5.45-9.54,2.12-22.11,3.4-32,4.56-1.31.15-1.63-.52-1.72-.52,7.23-13.31,23.17-15.22,35.85-20.4,3.18-1.3,7.69-3.42,10.65-5.1l3.69-1.06c2.88-1.37,7.87-6.98,10.56-7.45.94-.16,1.07.66.75,1.01-.05.06-1-.14-1.03.31-.06.68.65,1.33.31,2.19-.68,1.73-4.34,1.5-3.02,3.51.46.07.85-.02,1.25-.25,4.08-2.35,13.6-11.02,16.76-14.74,6.71-7.9,9.89-16.95,14.84-25.66,3.29-5.79,9.11-11.92,11.91-17.59,1.04-2.09,1.8-5.3-1.73-4.78-1.77.26-10.19,11.23-11.69,13.35-2.9,4.12-5.6,8.78-8.08,13.17-14.89,3.94-30.01,6.98-45.31,8.94-55.04,7.05-130.82,5.64-179.34-24.03-2.5-1.53-5.92-4.81-8.34-5.91v-.5c-1.67-22.64,13.65-35.62,31.5-46,4.7-2.74,9.69-5.46,14.5-8,18.92-9.97,37.99-19.94,56.99-29.76,42.29-21.86,83.86-36.99,130.41-47.59,21.48-4.89,61.14-9.03,76.93-24.32,15.68-15.18,20.36-50.74,27.67-71.33.18-.5.33-1.05.5-1.5,2.11-5.61,5.28-10.99,8.5-16,.6,1.31,1.26-.15,1.62-.63,2.06-2.81,3.84-5.57,5.9-8.1,5.55-6.83,12.31-13.9,19.52-18.98,1.38-.97,2.87-2.09,4.47-1.28-.56-2.9.97-1.65,1.44-2.05.29-.25-.07-1.14.07-1.45ZM523.54,5.99c-.49-.44-2.97.18-2.49,1.5.83-.06,3.49-.62,2.49-1.5ZM472.54,23.49c-.43-.46-2.34,1.07-1.99,1.99h1.99s0-1.99,0-1.99ZM475.59,28.44c.13.21,1.68.83,2.2.06.44-.64,1.19-3.74,0-4s-2.8,2.98-2.19,3.94ZM508.04,24.49c-.55-.55-1.54.45-.99.99s1.54-.45.99-.99ZM505.04,25.49c-1.04-.95-1.92,1.36-2.38,1.51s-1.47-.13-1.62,0c-.13.12.39,3.37.51,3.5.67.77,1.42-1.76,2.72-1.5.94.19.83,2.2.78,3,2.64.29.89-.62,1.1-1.7.16-.83,2-1.95.89-4.31-1.17-.53-1.72,2.61-3,1.5-1.04-.92,2.01-1.06.99-1.99ZM485.54,30c-1.2,1.56,3.6,2.96,3-.25-.25-1.32-2.83.03-3,.25ZM472.37,58.6c-4.03.36-11.21,9.66-8.37,13.68,3.39,4.78,11.82-5.48,11.52-9.98-.1-1.53-1.38-3.86-3.15-3.7ZM490.97,64.56c-.16-.26-2.26-.74-2.43-.57-.31.6.82,3.36,1.01,3.49,1.04.73,2.05-1.91,1.42-2.93ZM482.04,67.99h-2.5s1.49,4.5,1.49,4.5l-2,.5c3.97-.85,3.76,3.53,6.8-.19.39-.48.35-1.42.89-1.86s3.71-.5,2.3-1.95c-.23-.24-4.04.37-4.51.75-.58.46-.29,1.64-.76,1.78-2.56.77-1.59-1.66-1.72-3.53ZM497.04,71.49c-.55-.55-1.54.45-.99.99s1.54-.45.99-.99ZM495.54,72.49h-1.49v.99h1.49v-.99ZM504.54,79.99c-.55-.55-1.54.45-.99.99s1.54-.45.99-.99ZM502.54,87.99c-1,.19-4.32-.8-3.49,1.24.74,1.83,4.35-.55,3.49-1.24ZM507.04,89.49c-.55-.55-1.54.45-.99.99s1.54-.45.99-.99ZM505.04,89.99c-1-.99-1.59,1.85-2.74.49-1.11.66,1.84,2.03,2.74,2.01-.08-.55.14-2.36,0-2.5ZM479.4,91.57c-1.94.31-4.86,4.46-5.25,6.28-.29,1.38.25,4.8,1.68,5.12.2.05,3.53-1.34,3.89-1.55,3.01-1.74,4.32-10.58-.32-9.85ZM449.38,95.62c-5.53.22-11.2,19.99-2.32,17.16,3.69-1.18,7.13-11.4,5.72-14.77-.34-.82-2.43-2.42-3.4-2.38ZM431.37,127.59c-4.53.42-11.35,17.12-5.46,18.81,4.96,1.42,9.37-10.4,9.17-14.17-.09-1.79-1.59-4.83-3.71-4.64ZM457.9,134.56c-4.84,1.29-9.2,18.91-3.08,19.93,5.36.89,9.26-12.24,8.61-16.13-.41-2.47-3.12-4.44-5.53-3.8ZM386.63,172.9c2.85,1.82,9.03-1.79,11.36-3.71,1.95-1.61,5.77-4.75,3.6-7.5-1.95-2.48-11.07,1.79-13.02,3.58-1.42,1.31-3.87,6.4-1.94,7.63ZM346.44,175.14c-4.47.46-14.6,3.88-13.88,9.56.48,3.79,6.69,3.06,9.61,2.67,3.53-.48,12.66-4.24,13.36-8.15.92-5.11-5.61-4.43-9.08-4.07ZM425.91,175.11c-4.49.8-11.64,9.18-10.79,14.02.16.89,1.93,3.03,2.78,3.28,2.68.79,8.24-4.35,9.85-6.46,2.84-3.73,6.08-12.25-1.84-10.84ZM300.92,187.13c-3.56-.06-13.85,2.2-14.78,6.22-1.63,7.05,8.18,5.68,12.39,4.4,3.08-.94,7.65-2.72,8.3-6.23s-3.09-4.33-5.91-4.38ZM359.23,201.18c-5.32,7.66,3.81,8.57,9.5,7.25,3.87-.9,14.25-6.51,13.81-11.16-.09-.97-1.52-2.75-2.47-3.06-4.73-1.56-17.95,2.81-20.84,6.97ZM252.42,197.12c-10.86.35-12.89,12.47.61,8.12,7.02-2.27,6.25-8.33-.61-8.12ZM446.91,201.11c-4.52.78-8.37,9.48-7.73,13.56.95,6.02,9.02-2.27,10.09-5.19.6-1.64,1.64-7.86-.06-8.42-.7-.23-1.58-.07-2.31.05ZM325.41,213.12c-3.61.47-12.67,2.88-15.36,5.14-5.34,4.49-2.33,9.66,4.18,9.68,4.28.01,11.29-2.16,14.77-4.73,6.4-4.72,4.97-11.2-3.59-10.09ZM407.42,217.61c-1.73-1.49-7.28-.18-9.32.69-3.33,1.4-11.62,8.4-10.97,12.32,1.17,6.98,11.15,2.51,14.65-.14,2.46-1.86,6.74-6.54,6.69-9.75,0-.55-.72-2.84-1.04-3.12ZM196.65,229.39c.71,1.24,5.66,2.59,7.16,2.62,4.29.08,14.42-3.57,15.19-8.29.4-2.45.52-4.76-2.25-5.19-5.64-.87-15.87.49-19.13,5.8-.75,1.22-1.71,3.78-.97,5.06ZM259.94,219.14c-4.55.19-16.86,3.38-14.14,9.85s25.14,1.83,23.74-6.72c-.43-2.67-7.35-3.23-9.6-3.13ZM339.21,246.16c-2.45,2.81-2.68,7.52,1.6,8.3,5.79,1.06,14.93-1.63,19.19-5.76,2.48-2.41,4.33-7.57-.32-8.61-5.04-1.13-17.02,2.12-20.47,6.07ZM164.41,244.61c-1.48.25-4.32,1.74-4.77,3.23-2.26,7.55,13.42,6.33,15.19.67,1.48-4.75-7.6-4.37-10.42-3.9ZM276.72,250.67c-3.11,3.01-3.28,6.18,1.2,7.69,5.63,1.9,16.95.45,20.34-4.89,1.89-2.98-.16-6.1-3.46-6.49-5.04-.59-14.27,0-18.08,3.69ZM204.44,252.14c-2.97.23-9.27,1.41-10.64,4.36-1.97,4.24,4.82,4.93,7.47,5.01,3.85.11,12.13-.67,12.13-5.87,0-3.8-6.42-3.7-8.96-3.5ZM241.42,257.12c-9.05,1.2-7.34,9.75,1.74,6.74,6.03-2,6.75-7.86-1.74-6.74ZM130.42,263.12c-10.54,1.55-5.05,8.7,2.64,8.14,2.58-.19,8.29-2.36,6.73-5.76-1.29-2.8-6.8-2.75-9.36-2.38Z"></path><path class="st4" d="M37.04,230.99c-14.39-16.8-26.57-35.28-32.16-56.15-.65-2.44-2.2-5.04-2.35-7.62-.19-3.23.49-1.77-.73-4.74-.73-1.78-.35-10.51.28-12.6.12-.4.87-.39.94-.74.53-2.47-.26-3.96,2.01-6.41,3.99-4.33,11.91-2.46,16.48.04,3.76,2.06,5.96,4.4,8.66,7.06.36.35,2.89,1.24,3.37,1.66.19.17.33.33.5.5,6.98,6.7,11.74,13.45,16.91,21.84.9,1.45,4.82,9.44,5.91,9.69,5.12,1.16.4-7.44.04-9.14-5.09-9.11-10.1-19.24-19.83-24.19.3-3.44,5.65-2.31,8.06-1.55,5.26,1.66,13.09,12.72,16.11,17.39,4.7,7.28,8.64,15.36,12.91,22.59,2.01,3.4,4.38,6.64,6.01,10.26.29.29.74.04.88.11.48.24.97.42,1.5.5.14,2.8-.8,1.74-.99,2.01-.86,1.2,1.19.84,1.74,1.49,6.02,12.29,10.52,23.87,22.6,31.41,3.76,2.35,7.94,3.39,11.59,5.41,1.99,1.1,3.2,3.28,5.56,3.19l-.5-1.99,3.5.5c1.57,1.48-7.55,3.67-6.5,6-17.85,10.38-33.17,23.36-31.5,46l-4.17-6.83c-.91-.46-1.24-.91-1.83-1.67,1.21-.56.17-1.43-.24-2.01-1.03-1.47-2.38-3.05-3.49-4.52-2.58-3.39-6.38-9.14-9.77-11.47-1.11-2.08-.45-1.67-2.5-3-3.13-5.85-9.93-12.03-14.49-17.26-.51-.58-1.47-2.55-1.63-2.64-.51-.28-1.45.09-1.79-.18-.17-.13-.21-1.14-.58-1.66-3.01-4.22-7.34-7.57-10.51-11.26Z"></path><path class="st0" d="M136.54,182.49c-.02.33.03.67,0,1-1,12.49-4.13,26.06-4.52,39.23-.17,5.59.09,11.54,2.02,16.77-4.81,2.54-9.8,5.26-14.5,8-1.05-2.32,8.06-4.52,6.5-6l-3.5-.5.5,1.99c-2.36.1-3.56-2.09-5.56-3.19-3.65-2.01-7.83-3.06-11.59-5.41-12.09-7.54-16.58-19.12-22.6-31.41-.55-.64-2.59-.29-1.74-1.49.19-.27,1.13.79.99-2.01-.51-10.55-.97-20.52,1-31,.7-3.71,5.66-17.79,8.72-19.53,1.05-.6,2.37-.3,3.05-.95.55-.53,3.08-7.86,5.23-10.52-.2.29-2.46,5.7-2.74,6.51-2.66,7.65,1.7,16.08,3.1,23.87.82,4.55,1.75,10.81,2.13,15.37.26,3.16.66,9.59-3.92,6.42-1.26-9.28-2.08-18.57-4.31-27.68-.3-1.22-2.37-9.21-2.78-9.47-.15-.1-1.2-.09-1.41.04-.38.24-2.48,6.86-2.85,7.9-1.29,3.68-3.34,8.87-3.68,12.85-.13,1.54.51,2.65.47,3.4-.01.3-.91.23-1.01.62-1.02,4.11-.85,15.18-.03,19.43.19.99-.19,2.22,0,2.94.04.15,1.72.73,2.5,1.68,11.48,13.93,15.03,22.08,33.27,29.12,3.86,1.49,7.63,2.17,11.76,2.49.23-4.84-.3-9.94,0-14.75.37-5.91,1.81-13.09,2.46-19.04,2.14-19.82,4.38-42.28.02-61.92-.32-1.45-3.59-12.25-4.07-12.71-.24-.23-1.14.07-1.32-.13-.46-.48.8-1.93-2.58-3.19-1.97-.73-6.14-.71-7.86.38-.46.29-4.29,5.07-4.84,5.91s-1.17,1.92-1.65,2.85c-.83,1.63-.59,3.44-2.15,3.6.1.88,3.48,5.7,4.24,7.51,4.07,9.61,5.73,24.9,4.78,35.27-.19,2.03-1.19,4.73-3.51,2.46-1.65-1.61-.79-6.23-1.02-8.48-1.14-11.08-3.52-22.71-6.62-33.38-.99-3.42-3.6-2.12-5.43-.21-.3.31-.9.27-.95.34.11-.14.03-.74.52-1.21,2.88-2.81,4.59-1.93,7.98-2.29-.37-3.16,4.75-10.04,7.26-11.99,10.02-7.78,15.03,3.3,17.31,11.66,4.08,14.96,3.94,33.43,2.93,48.82Z"></path><path class="st0" d="M63.54,167.49c3.41,5.23,6.78,13.56,10.5,18v.5c1.97,4.42,5.86,8.31,7,13-.14-.07-.59.18-.88-.11-1.63-3.62-4-6.86-6.01-10.26-4.27-7.23-8.21-15.31-12.91-22.59-3.01-4.67-10.85-15.73-16.11-17.39-2.41-.76-7.76-1.9-8.06,1.55,9.73,4.95,14.74,15.08,19.83,24.19.36,1.7,5.08,10.3-.04,9.14-1.1-.25-5.02-8.23-5.91-9.69-5.17-8.39-9.93-15.14-16.91-21.84,2.71-1.03,1.58-4.44,4.96-5.28,9.06-2.25,20.25,14.21,24.54,20.78Z"></path><path class="st0" d="M33.54,151.49c-.48-.42-3.01-1.3-3.37-1.66-2.7-2.66-4.9-5-8.66-7.06-4.56-2.5-12.49-4.37-16.48-.04-2.26,2.45-1.48,3.94-2.01,6.41-.07.34-.82.34-.94.74-.63,2.09-1.01,10.82-.28,12.6,1.22,2.98.53,1.51.73,4.74.15,2.58,1.7,5.18,2.35,7.62,5.59,20.87,17.77,39.35,32.16,56.15,3.17,3.7,7.49,7.05,10.51,11.26.37.52.42,1.52.58,1.66.34.28,1.28-.1,1.79.18.16.09,1.12,2.05,1.63,2.64,4.55,5.23,11.36,11.41,14.49,17.26,2.05,1.33,1.39.92,2.5,3,3.38,2.33,7.18,8.07,9.77,11.47,1.12,1.47,2.46,3.05,3.49,4.52.41.58,1.44,1.46.24,2.01-4.32-5.57-10.27-11.97-13.5-18-.16-.11-.66-.01-1.22-.5-.74-.65-.89-1.78-1.28-2.5-2.37-1.54-18.15-18.55-20.5-21.5-.84-1.05-.69-.67-1-1-.08-.09.08-.4,0-.5-.18-.21-.39-.37-.5-.5-.15-.18-.36-.32-.5-.5-2.24-2.78-4.47-6.23-6.5-9-.16-.21-3.05-2.3-3.97-3.4-13.46-16.13-27.29-36.38-31.47-57.41-.31-1.54-.35-6.43-.55-6.69l-.5-1c.19-2.23-.67-5.92-.52-8.77.5-9.75,5.18-16.15,15.73-14.69,4.41.61,12.17,6.41,15.53,9.47.9.83,2.12,1.66,2.26,2.99Z"></path><path class="st2" d="M1.04,163.49c-.06-.08-.71.05-1,0-.2-.52.49-.93.5-1l.5,1Z"></path><path class="st7" d="M88.04,293.99c2.43,1.1,5.84,4.37,8.34,5.91,48.52,29.67,124.3,31.08,179.34,24.03,15.31-1.96,30.42-4.99,45.31-8.94-2.4,4.22-4.12,8.83-6.79,12.96-6.06,9.36-18.04,19.55-27.71,25.04-2.96,1.68-7.48,3.8-10.65,5.1-12.68,5.19-28.62,7.09-35.85,20.4-.39,0-1.24.63-1.5,1-1.89,0-3.95.12-5.78-.46-2.86-.91-1.51-.38-4.45-.52-3.12-.15-7.24-1.14-10.36-1.63-36.56-5.73-73.93-17.64-103.41-40.39-.16-.88-.57-1.13-1.14-1.67-9.51-8.91-18.77-17.15-23.36-29.83-.29-.8-.75-2.19-1-3-.39-1.29-.26-2.53-.5-3.5l-.5-.5c-.17-.77-.36-1.78-.5-2.5v-.5c.03-.33-.02-.67,0-1,.15.06.37-.06.5,0ZM132.04,328.48c.12-.14-.26-3.58-.48-3.74-2.58-.11-9.12-6.05-10.8-2.75-1.57,3.08,5.8,6.97,8.53,6.99.34,0,2.66-.4,2.75-.5ZM208.92,338.12c-2.75.37-8.14,2.15-4.64,5.38,2.89,2.67,12.47,2.63,15.72.71,1.21-.72,2.64-2.88,1.81-4.22-1.03-1.67-10.78-2.15-12.89-1.86ZM262.93,338.64c-2.91.15-7.72.94-9.18,3.86-.64,1.29,2.24,3.55,3.44,4.08,3.7,1.63,15.81,1.79,17.24-2.95,1.57-5.18-8.25-5.16-11.5-5ZM160.91,340.1c-2.39.2-3.31,2.1-1.64,3.91,2.15,2.34,15.17,4.67,16.22,1.66,1.28-3.71-6.29-4.82-8.75-5.13-1.23-.15-4.79-.53-5.82-.45Z"></path><path class="st4" d="M564.04,353.49c5.3-2.72,19.37-18.91,22.11-24.64.95-1.98-.62-2.23,2.66-2.83l11.73-28.53c1.24-.93,3.19,3.37,3.46,3.68,1.71,1.96,5,3.9,7.03,5.82,6.76,6.38,12.02,12.36,20.5,18,2.46,3.76,6.99,6.79,10.5,9,.07.04.71.72,1,1,4.15,4,8.42,8.13,12.75,12,1.88,1.68,4.08,3.8,6.25,5,.5.6,1.27,1.03,2,2,.11.15.14.77.48,1.25,2.02,2.81,5.39,5.41,4.91,9.36-.16,1.27-.67,2.67-.89,3.89s-.5.94-.5,1l-4.5,1.51.5.99c-2.63.7-5.31,1.09-8,1.51l-5.77-.02c-9.49.84-19.44.78-28.97.02-10.17-.82-20.01-3.29-29.87-4.1-1.75-.14-1.97-1.33-2.1-1.33-4.41.06-11.16-.67-15.4-2.19-.8-.29-1.29-1.27-1.67-1.36-.79-.2-1.09.94-1.2.99-.12.05-.32-.03-.5,0,.28-1.91-1.86-.49-3.01-1.26-.34-.23-.37-1.04-.58-1.17-.13-.09-2,.41-3.16-.05s-1.22-1.49-1.58-1.55c-.51-.08-1.31.48-2.2.33-1.24-.2-2.4-1.7-3.97-1.3,1.38-1.11,2.88-2.75,4.18-3.81,1.79-1.45,2.03-.74,3.82-3.18Z"></path><path class="st0" d="M668.54,357.49c2.02,2.59,2.04,6.07,1.49,9.24-.16.93-.68,1.39-1.49,1.76.22-1.23.74-2.62.89-3.89.48-3.94-2.89-6.55-4.91-9.36-.35-.48-.37-1.1-.48-1.25,1.19.38,3.75,2.53,4.5,3.5Z"></path><path class="st7" d="M542.04,91.99c7.79,1.72,15.71,3.51,24,3,17.12,12.63,44.56,7.81,62.69-.56,1.66-.77,5.74-3.75,7.1-3.95s5.82,2.89,5.71,4.01c-.13,1.27-4.54,8.16-5.59,9.66-7.47,10.7-20.95,18.04-33.41,21.34-10.89,2.88-25.55,5.01-36.61,2.86-2.48-.48-8.67-3.82-9.79,0s3.63,5.69,6.55,6.74c9.07,3.25,20.69,3.02,29.6-.59,2.81-1.14,5.26-3.34,8.25-4-3.36,12.74.34,32,2.5,45,6.35,38.25,9.76,81.96-2.5,119.5-4.95,15.14-13.82,32.91-24.01,45.24-3.88,4.69-9.04,8.55-12.49,13.26-2.25,1.16-2.21,1.48-4.03,2.72-2.11,1.44-4.99,1.96-4.97,4.78-.96-.14-3.78.15-4.61.52-.44.2-2.01,2-3.81,2.84-2.38,1.11-1.85,1.14-3.73,2.25-1.29.76-3.66.84-3.8.97-.17.16.15.99-.36,1.46-.76.69-11.01,4.85-12.84,5.56-48.69,18.87-103.39,17.73-155.11,16.92l-20.73-2.02c.83-.54,1.53-1.66,2-2,21.57-15.37,37.17-34.5,46.88-59.37,4.26-10.91,10.98-36.89,9.62-48.13,1.94,0,4.63-1.86,6.25-3,25.23-17.81,52.89-56.04,61.99-85.51,8.21-26.59,5.77-71.87,25.23-91.27,12.19-12.15,24.45-11.66,40.02-8.23ZM517.37,151.6c-5.03.43-5.08,12.63-3.05,15.86.93,1.48,4.03,2.11,5.51,1.07,2.67-1.89,2.84-17.37-2.45-16.92ZM571.83,159.54c-1.71.43-1.43,8.03-1.17,9.58s2.68,5.8,4.53,5.32c5.17-1.37,1.2-16.06-3.36-14.9ZM550.4,184.06c-4.2,1.15-6.11,18.6-2.36,20.67,6.04,3.33,7.39-11.51,7-14.99-.24-2.12-2.05-6.39-4.64-5.68ZM590.37,191.1c-2.02.19-3.63,5.88-3.84,7.63-.32,2.64-.05,14.38,4.5,11,3.3-2.45,4.66-19.11-.66-18.62ZM496.39,192.1c-7.49,1.73-8.83,29.27,1.85,15.85,3.14-3.94,6.84-17.85-1.85-15.85ZM518.88,225.12c-5.1.23-12.65,15.58-9.56,20.34,3.31,5.1,9.78-4.67,10.96-7.49s4-13.1-1.4-12.86ZM571.39,242.06c-4.55,1.18-8.19,17.84-4.88,21.2s7.59-7.5,7.99-10.06c.32-2.05.55-7.38-.2-9.22-.44-1.09-1.63-2.25-2.91-1.92ZM475.9,247.59c-4.1.93-8.92,12.91-8.63,16.92.52,6.99,7.18,2.95,9.35-1.18,1.74-3.31,7.03-17.49-.73-15.74ZM536.41,264.06c-1.86.37-4.75,4.23-5.68,5.86-1.98,3.46-7.7,17.52.34,15.85,6.26-1.3,9.83-12.96,8.95-18.51-.27-1.68-1.72-3.58-3.6-3.21ZM586.4,276.55c-1.15.17-3.59,2.74-4.28,3.77-1.16,1.72-4.21,9.01-4.55,10.95-.49,2.79-.59,11.47,4.33,9.35,5.61-2.42,9.13-16.35,7.54-21.78-.28-.94-1.99-2.44-3.03-2.29ZM493.91,289.1c-4.58.91-14.65,14.88-13.88,19.61.27,1.64,2.84,3.49,4.51,3.07,4.78-1.2,9.59-8.21,11.58-12.46,1.54-3.3,4.4-11.54-2.21-10.22ZM446.94,293.59c-5.16.13-13.78,7.37-16.31,11.74-3.93,6.78.28,9.39,6.9,6.9,4.2-1.58,12.02-8.89,12.52-13.48.24-2.23-.52-5.23-3.11-5.16ZM547.37,330.32c2.58-2.48,6.87-14.01,1.9-14.83-4.08-.68-10.79,8.57-11.17,12.32-.74,7.21,5.53,6.11,9.27,2.52ZM502.92,336.63c-3.13.72-12.28,8.71-12.42,12.13-.38,9.16,11.09,1.28,14.05-2,3.56-3.95,7.97-12.35-1.63-10.13ZM432.91,337.61c-3.95.68-14.68,6.27-13.87,11.1.76,4.58,9.79,1.43,12.53.05,2.39-1.21,9.64-6.08,8.25-9.25-1.07-2.43-4.66-2.29-6.9-1.9Z"></path><path class="st0" d="M648.04,51.99c-1.85,1.58-4.58,7.13-4.78,9.48-.31,3.67,1.15,8.04.77,12.27-.59,6.59-8.89,16.93,5.5,13.26-.14.75.4,1.42.51,2,.06.3-.04.68,0,1v.5c-.17.06-1.51,2.57-2.09,2.87-.22.12-.89-.33-1.4-.14-1.67.6-2.86,1.8-5.01,1.27.11-1.12-4.32-4.21-5.71-4.01s-5.44,3.18-7.1,3.95c-18.13,8.37-45.57,13.19-62.69.56-1.01-3.31-3.24-5.03-3.52-8.73-.19-2.46.06-8.16,3.31-8.28,4.19-.15,2.45,6.07,3.35,9.12,3.81,12.97,29.43,10.45,39.47,8.25,15.39-3.36,35.3-11.76,29.76-31.48-2.25-7.99-8.45-5.67-14.5-7-4.12-.9-7.16-6.44-3.03-9.3,3.49-2.42,15.57-2.5,20.17-2.58.57-.01,1.19-.48,1.5-.5,1.46-.08,3.49,1.82,4.23,3.02,1.01,1.64.75,3.08,1.27,4.48Z"></path><path class="st2" d="M602.54,125.49c.07,1.73-1.68,3.77-2,5-2.98.67-5.43,2.86-8.25,4-8.91,3.62-20.53,3.84-29.6.59-2.92-1.05-7.68-2.91-6.55-6.74s7.31-.48,9.79,0c11.06,2.15,25.73.02,36.61-2.86Z"></path><path class="st2" d="M652.04,64.99c.94,6.08,1.16,12.97.28,19.03l-2.28,4.97c-.11-.58-.65-1.25-.51-2-14.39,3.67-6.09-6.67-5.5-13.26.38-4.23-1.08-8.6-.77-12.27.2-2.35,2.93-7.89,4.78-9.48,1.56,4.22,3.29,8.41,4,13ZM649.48,63.05c-.37-.59-2.28-.32-2.94-.06.05,4.88,4.57,2.67,2.94.06ZM648.59,73.94c2.41,1.54,3.43-3.07,1.14-3.41-1.63-.25-2.03,2.85-1.14,3.41Z"></path><path class="st0" d="M600.54,294.99c1.81,1.04,2.05.69,3,2.5,1.57,2.99,4.93,7.62,7.5,9.5,6.13,4.49,9.35,7.36,14.65,12.85.46.47,3.2,1.44,4.35,2.65.83.87,1.02,1.76,1.5,2.5,4.08,2.72,7.01,5.97,10.5,9,.55.47.88.89,1,1,6.5,5.65,13.41,10.23,19,17-2.17-1.2-4.37-3.33-6.25-5-4.33-3.87-8.6-8-12.75-12-.29-.28-.93-.96-1-1-3.51-2.21-8.04-5.24-10.5-9-8.48-5.64-13.74-11.62-20.5-18-2.03-1.92-5.32-3.86-7.03-5.82-.27-.31-2.22-4.61-3.46-3.68l-11.73,28.53c-3.28.6-1.72.85-2.66,2.83-2.74,5.73-16.81,21.92-22.11,24.64-1.79,2.45-2.03,1.73-3.82,3.18-1.3,1.06-2.8,2.7-4.18,3.81,1.56-.4,2.73,1.1,3.97,1.3.9.15,1.69-.41,2.2-.33.36.06.39,1.08,1.58,1.55s3.03-.04,3.16.05c.2.13.24.95.58,1.17,1.15.77,3.29-.65,3.01,1.26-1.52.22-4.62-.62-6.22-1.03-2.36-.61-7.53-3.22-9.28-3.47-.02-2.82,2.86-3.35,4.97-4.78,1.83-1.24,1.78-1.56,4.03-2.72,3.45-4.71,8.61-8.57,12.49-13.26,10.19-12.33,19.07-30.1,24.01-45.24Z"></path><path class="st1" d="M87.54,295.49c-.13-.66-.03-.16,0-.5v.5Z"></path><path class="st1" d="M88.54,298.49s-.41-.08-.5-.5l.5.5Z"></path><path class="st5" d="M468.04,16.49c-.13.32.23,1.2-.07,1.45-.46.4-1.99-.85-1.44,2.05-1.6-.81-3.09.31-4.47,1.28-7.2,5.08-13.97,12.15-19.52,18.98-2.06,2.54-3.84,5.3-5.9,8.1-.36.49-1.02,1.94-1.62.63,8.36-13.01,19.35-25,33-32.5Z"></path><path class="st2" d="M509.54,28.49c.05-.48.69-1.82.5-2-.08-.08-2.61.21-1.5-.99.17-.18,5.14-1.34,3-2.76s-1.35,1.1-1.5,1.25c-.23.23-1.74-.42-2.31-.44-1.51-.05-4.5.89-4.69-1.56,1.62.41,1.8-1.32,2.61-1.68.94-.41,1.97-.2,3.16-.81,2-1.04,3.19-3.4,3.73-5.52l1.99,1v-2c-2.13,1.2-4.17-.27-2.54-2.3.32-.4,3.1-.88,2.04-1.69-.36-.28-4.06.24-5.14-.02-.31-.07-.66-1.5-1.86-.99-.63-2.33,3.76-3.64,5-2.49s-2.46.64-1.5,1.99c1.08-.66,3.15.05,3.72-.07.85-.18.34-1.9,1.78-1.43l.75,3.49c1.61-1.8-.38-4.56,3.25-4-.98,2.98,4.06,5.55,4.01,7.75-.02.87-1.66,2.3-.5,4.25-.23.24-1.69-.71-1.97-.49-.12.09-1.06,2.59-1.03,2.73.36,1.85,2.89-.32,3.23-.24.54.12,1.37,3.62,4.94,1.42,1.06-.65,1.15-4.02.83-4.42-.87-1.06-1.11,2.04-1.99.99-1.04-1.23,1.73-1.96,1.96-2.84.27-1.05-1.36-2.1-.96-2.65s3.34.06,2.99-1.24c-.16-.6-1.32-2.24-1.98-1.76-.72,3.3-3.47-1.33-2.01,3.49-2.29.04-3.69-.7-3.36-3.19.04-.29,1.31-2.65,1.45-2.72.76-.44,1.88.45,2.61.31.61-.11,1-1.26,2.08-1.41s2.13.62,3.22.52l-.5-4.49c3.23-.57,1.44,1.17,2.06,1.93.15.18,1.73.34,2.18.58l-.74-2.51c1.36.14,2.96-.2,4.26-.04,2.11.25,2.47,5.36,2.75,5.53,1.7,1.08,1.36-1.1,1.58-1.36.28-.33,1.93-.27,2.4-1.39.38-.93-2.12-.84-.99-1.74.73-.58,6.09,1.02,7.49.5.76,1.16-2.06,1.02-.99,2,.21.2,3.29-1.25,5.63-.88,12.66,2.02,31.01,10.43,40.63,18.87,3.22,2.83,6.39,7.44,9.74,9.51.11.27-.22.99.08,1.4.23.32,6.38,2.87,7.2,3.06,8.12,1.93,16.2,2.17,23.63,6.39.81.46,1.42-.25,1.09,1.64-4.59.08-16.67.16-20.17,2.58-4.12,2.86-1.08,8.39,3.03,9.3,6.05,1.33,12.26-.99,14.5,7,5.54,19.73-14.37,28.12-29.76,31.48-10.04,2.19-35.66,4.71-39.47-8.25-.9-3.05.85-9.27-3.35-9.12-3.26.12-3.5,5.82-3.31,8.28.28,3.7,2.5,5.42,3.52,8.73-8.29.51-16.21-1.28-24-3,.37-2.02-2.2-1.71-1.5-4-2.35-.51.61,2.93-1.21,2.47-1.99-.49-5.11-2.17-7.1-2.31-1.57-.11-4.1.81-5.86.35-.51-.13-.12-.91-.58-1.01-1.08-.25-.51.71-1.12.98s-1.86.28-2.62.53v-2.5c-2.13-.47-.38,2.4-.5,2.49-.22.17-4.61,1.09-5.42,1.34-1.27.4-2.03,1.82-3.38.7-.46-.38-.61-1.39-.77-1.5-.31-.2-2.35,1.45-2.86-1.42-.39-2.21,1.64-3.23,2.19-4.58.69-1.68.4-2.92.74-4.2.14-.51,1-.19,1-.59,0-1.71-2.44-.53-2.01-2.25,2.55.3,2.05-.18,2-2.5-2.86.09-1.82,3.28-4.5,2.5.69,1.66.3,2.82,0,4.49,3.18-.66,1.9,1.47.46,2.7-.43.37-1.42.35-1.75.78-.64.83,1.68,2.11-1.7,2.52-.15,2.2-2.2.75-1.5,0,.49-.05,1.01.06,1.5,0,.09-1.31.98-3.02.95-3.18-.17-1.01-3.36-2.03.05-3.57.44-.99-1.02-.64-1.02-1.02,0-.49.59-1.06.44-1.86-.32-1.69-2.1-3.45-3.41-4.37.16-.67.52-1.29.5-2-.23-.24-1.77.69-2,.5-1.01-.85,1.97-2.55,4.22.04.53.61.77,1.94,1.28,2.26.68.42,1.53-.39,2.21-.33.44.04.26,1,.31,1.03,1.19.94.82-1.03,1.11-1.37.15-.18.79-.1,1.17-.33.23-.14.26-.77.52-.78.82-.06,3.15.61,3.22,1.74.16,2.49-2.05,2.46,2.47,3.75.46-1.72-.68-2.53-.99-4,1.88.66,2.61,2.11,4.99,1.49.48-1.42-1.27-.96-1.45-1.77-.15-.69.97-3.5.45-4.72,4.2,1.08,7.29,2.19,11.77,2,.96-.04,2,.52,1.73-1,.5-.02,1,.03,1.5,0-.21,1.74.55.69,1.39.65,7.5-.4,17.23-4.41,22.63-9.37,1.75-1.61,1.75-1.74,2.48-3.78.05-.14-.05-.34,0-.5h1.5c.17-.44-.51-.93-.5-1,.11-.96,2.15-4.03,2.64-5.61,2.1-6.79,1.02-12.21-2.14-18.39-1.24-2.42-3.23-4.19-5.57-5.68-15.59-9.95-34.85-2.61-43.96,12.42-.64,1.06-.07,2.24-1.72,1.77-.18-.05-.28-1.02-.5-1.04-1.02-.08-1.59.83-1.99.83-.92.02-5.23-2.69-6.49-2.76-.9-.05-2.64.76-3.77.95-.27-1.1-.19-1.63-1.63-1.42-3.2.47-3.1,3.25-5.87,3.42.98-2.38-.13-2.23-.31-2.66-.25-.61-.22-1.41-.47-1.79-.59-.93-2.21-1.73-2.22-2.78,0-.82.86-1.49.92-2.1.07-.73-1.21-1.43-.91-2.38.24-.78,1.66-.31,1.49-1.79.68-.25,2.79-.56,2.5-1.74-.11-.45-2.33-1.33-2.73-1.25-1.59.3.14,2.2.23,3-.36.13-3.37,1.13-3.5,1-1.02-1.08,1.53-1.48.99-2.5-.87.13-2.64.44-2.92,1.32-.08.24-.16,4.51-1.57,3.18-.13-.13-1.14-3.37-1.01-3.5h2.01c.45-.44-1.51-4.46-1.76-4.51-2.05-.37-1.61,2.29-2.52,2.5-1.87-.73-2.98-2.01-5.23-1.5,1.11,2.39-.24,1.71-.49,2.37-.41,1.06.83,1.99-1.51,1.62,1.02-2.84,1.41-4.13,0-6.99,2.48-1.71,5.09,1.82,5.82,1.94.48.08,2.29-1.36,3.54-1.32.88.02,2.01,1.3,3.64.38l-1.49,2.5c3.94,1.43,4.21-2.41,5.1-2.89.35-.19,1.79-.19,1.89-.11.53.46-1.14,1.59-1,2.23.3,1.45,2.67.12,2.93.3.1.07.49,1.23,1.03,1.74s1.94,1.24,2.05,1.56c1.11,3.36-2.73.37-3,.66.77,3.04-2.28,3.96-3,5.76-.63,1.57,2.13-.12,2.49.24l-.49,2.49,3.24-.52,1.25,1.52-.5-1.99c2.1-1.05,4.46,2.32,5.71,1.98,3.26-.87-2.36-2.67-3.01-2.94s-1.47-.21-.45-1.05c1.31.64,3.11.59,4.35,1.05.33.12.36.65.8.9,1.34.76,2.57-.38,2.1,3.06.69.29,2.84-.68,3-.5.1.11-.33,2.68,1.49,1.5.3-.19.09-5.11,1.66-6.85.5-.55,4.25-1.26,2.85-2.65-.31-.31-2.12.91-1.5-2,1.51-.81.62,2.63,1.99,1.49.35-.29,1.02-3.03,1.5-3.76.94-1.43,3.74-1.69,2.01-3.49-.11-.11-2.05-1.18-2.26-1.24-1.81-.53.53,2.26.23,3.19-.19.59-1.2.63-1.36.9-.35.58.03,1.74-.11,1.9-.42.5-2.12-1.59-3.66-.54-1.33.91.16,2.93-2.34,3.54-.19,1.71.79,2.91-1.5,2.5.09-.57-.16-2.32,0-2.51.1-.12,1.11.1,1.5,0ZM548.04,7.99c-.16-.16-3.78,1.5-3.49,2.24.15.38,1.05.78,1.26,1.27.28.67-.6,2.96,1.55,3.36.24.04,4.5-.5,4.7-.62,1.57-.95-1.18-1.48-.51-2.76l-3.99,2c-.29-2.24-.46-3.42.49-5.5ZM517.54,14.99c-1.54-.72-2.64,1.52-2.81,1.53-.59.05-1.99-.75-2.18-.53-.7.81,1.04,2.65,2.18,2.42.3-.06,3.67-2.57,2.82-3.42ZM551.04,19.49c1.74,1.57,4.58-5.28-.5-3.49-.14.82,1.34.59,1.5,1.25s-1.54,1.76-1,2.24ZM546.54,16.49c-.84-.91-2.87,1.35-1.94,2.46.14.16,3.8,1.7,3.94,1.55,1.31-1.36-1.83-1.95-1.93-2.07-.33-.39.1-1.76-.07-1.94ZM520.04,28.49c2.1.09,2.1-3.09,0-2.99v2.99ZM631.04,42.99c-.55-.55-1.54.45-.99.99s1.54-.45.99-.99ZM633.04,43.5c-.7-.36-1.33.32-.99.49.7.36,1.33-.32.99-.49ZM626.97,66.06c-.55-.87-4.01-.81-3.85,1.09.28,3.38,5.65,1.76,3.85-1.09ZM607.06,70.04c1.91,6.74,5.88-.14,3.17-1.01-1.23-.4-2.1.77-3.17,1.01ZM594.86,76.05c-1.29.43-1.51,3.5.93,3.49,3.59-.01,2.37-4.6-.93-3.49ZM618.87,76.06c-1.57.53-1.76,3.13.45,3.45,3.96.57,3.13-4.66-.45-3.45ZM523.54,76.99c-2.19-.63-1.36,2.07-2.49,3.73,1.66,1.51,2.42,1.45,3.97.26l.02-.72c-1.73-.83-1.68-1.37-1.5-3.26ZM516.04,77.99c-2.04.16-2.83,1.23-2.48,3.21.03.2.89,2.68.99,2.79,1.48,1.62.64-2.48.67-2.68.14-1.15.75-2.16.83-3.32ZM520.54,78.49c-.73-.76-5.05,3.04-2.74,3.49.46.09,3.45-2.76,2.74-3.49ZM604.67,83.36c1.95,1.95,4.82-1.15,2.66-2.92-1.7-1.4-4.55,1.03-2.66,2.92ZM517.41,84.15c-1.87-.86-1.07.52-1.53,1.16-.91,1.27-2.65,1.6-2.77,1.73-.38.41-.15,2.52.68,2.95l.75-2.49c3.58.86,1.82.38,2.76-.99.35-.5,1.15-.45,1.22-.53.35-.42-.86-1.71-1.11-1.82ZM545.03,88.49c-1.18-1.25-1.9,3.68.5,3.5.12-.16-.38-3.37-.5-3.5ZM562.53,90.49c-1.43.25-1.31,1.62-3.5,1v2c1.41.5,1-1.29,1.72-1.39.39-.05,2.05.57,2.54.88l-.76-2.49ZM550.04,92.99c.54-.48-1.02-2.03-1.49-1.49-.75.86.65,2.25,1.49,1.49Z"></path><path class="st2" d="M508.54,43.99c2.67,0,2.14,4.26,1.98,6.23-.06.7-.85,1.19-.85,1.92-.02,2.13,1.42,6.8,2.56,8.68.15.25.79.13.82.16.1.15-.06,1.08.47,1.75,2.03,2.56,8.26,5.12,4.54,8.02s-3-.18-3.58-.7c-1.77-1.58-4.19,2.6-4.43,2.43-.77-1.57-1.04-2.23-.51-4-1.19-.33-1.86,1.13-3.01.81-1.02-.28-5.07-4.8-5.49-4.31-.3.98.68,2.43.47,3.19-.27.94-1.86.57-2,1.06-.59,2.18,1.26,1.96,1.52,2.24.68.72.07.5,1.5,1.5-.12.51.42,1.92-.74,1.49-.39-.14-3.63-3.09-3.71-3.33-.55-1.6,1.63-3.51,1.45-4.4-.2-1-2.72-.45-3.55-1.46-.96-1.16-.91-2.2.55-2.3.08.4-.14,1.37,0,1.49s2.82.1,3.49.51v-2c1.12.94,6.04.16,4.5-1.5-.31-.34-6.65,1.4-8,1.5-.15-.74-.03-1.78-.62-2.38-.38-.38-2.15-.84-2.38-.62-.62.61,2.18,2.75.02,4.66-2.47,2.17-.92-1.74-.99-2.35-.02-.17-1.78-.35-.97-2.51.35-.93,1.5-.55,1.85-.93.3-.34,0-1.26.1-1.38.4-.47,2.83,2.71,4.36,2.9.36.05,3.02-.3,3.14-.4,1.32-1.13-2.39-1.39-2.5-1.5-1.02-.97,1.89-1.36,2.24-1.5.35,2.52.71,1.07,2.76,1.01l-.5,1.99c1.33.55.85-1.03,1.25-1.01,1.21.06,1.48,2,2.69.21.44-.65.78-1.42.32-2.19-.77-1.28-2.2,1-3.25.5-.53-2.71.77-1.61,1.76-2.47,3.66-3.16-.53-7.18,1.34-8.96.65-.61,1.5,1.17,1.4-2.07ZM507.04,60.99c-.12-.11-1.09.06-1.5,0-.58.77.32,7.67,2,6,.6-.6-1.23-1.64-1.31-2.23-.1-.72,1.22-3.39.81-3.76Z"></path><path class="st2" d="M499.54,37.99c.27,1.11-.72,1.77,1.5,1.5l-1,2.5c3.63-2.12,1.82,4.61,4.51,2.77,1.11-.76-.25-2.5-.01-2.76.98-1.09.81,1.51,1.74.99,1.35-2.67,2.17-1.64,2.26,1-1.94,0-2.9,4.04-4.23,5.04-.6.45-1.7.41-1.76.48-.17.18.39,2.41.5,2.48.63.44,1.64-1.31,2.49-1,.04,3.07-4.91,3.91-4,.5-.54-.63-2.47,2.63-4.52,1.27-1.19-.79-.11-3.91,2.02-2.27-.39-4.94,1.67-1.28,2.25-1.5,1.74-.99,1.85-3.84-.48-3.51-.24.03-.28.86-.88,1.17s-3.66,1.56-3.88,1.35c.34-1.33-1.18-2.06-1.42-2.87-.51-1.7,1.41-7.1,3.24-7.52.57-.13,1.36.44,1.67.38ZM499.54,41.99l-3-.5v2c1.18.07,3.12.3,3-1.49Z"></path><path class="st5" d="M408.54,279.99c1.35,11.24-5.37,37.22-9.62,48.13-9.7,24.87-25.31,44.01-46.88,59.37-.59-.4-3.23-.09-3.44.09-.16.14.08.94-.39,1.43-.77.82-2.37.71-3.02,1.13-4.94,3.17-10.26,6.74-16.05,8.7-1.9.64-4.64,1.87-5.6-.35,46.57-19.96,72.24-62.05,78.44-111.31.31-2.48-.77-14.52,4.57-11.94,1.03.5,1.86,3.63,2,4.75Z"></path><path class="st5" d="M240.04,378.49c.09,0,.4.67,1.72.52,9.88-1.15,22.45-2.44,32-4.56,4.67-1.04,12.42-4.99,16.08-5.45.76-.1,1.53-.15,2.24.2,2.12,3.26-1.87,4.55-4.39,5.67-15.09,6.7-34.31,6.42-50.35,10.05-.77,3.63-.56,7.63,2.01,10.5,9.97-3.54,20.59-3.79,30.8-6.09,7.8-1.75,15.74-4.59,23.3-7.2,1.98-.68,7.05-3.33,8.47-3.56,1.95-.31,3.1,1.75,2.4,3.39-1.03,2.39-13.18,6.44-16.16,7.38-14.3,4.5-28.71,5.93-42.88,9.65-1.17.31-1.43-.62-1.23,1.5-5.9-3.55-8.59-6.78-7.86-14.11.24-2.47.8-3.46,1.82-5.3.26-.47.27-1.18.54-1.58.26-.37,1.11-1.01,1.5-1Z"></path><path class="st5" d="M321.04,314.99c2.49-4.39,5.18-9.05,8.08-13.17,1.5-2.12,9.92-13.09,11.69-13.35,3.53-.52,2.77,2.69,1.73,4.78-2.8,5.66-8.62,11.79-11.91,17.59-4.95,8.71-8.13,17.76-14.84,25.66-3.16,3.72-12.67,12.4-16.76,14.74-.4.23-.79.32-1.25.25-1.32-2.01,2.34-1.78,3.02-3.51.34-.86-.37-1.51-.31-2.19.04-.45.98-.25,1.03-.31.33-.35.19-1.17-.75-1.01-2.69.47-7.68,6.08-10.56,7.45l-3.69,1.06c9.67-5.5,21.65-15.68,27.71-25.04,2.67-4.13,4.4-8.73,6.79-12.96Z"></path><path class="st5" d="M325.41,213.12c8.56-1.12,9.99,5.36,3.59,10.09-3.48,2.57-10.49,4.74-14.77,4.73-6.51-.02-9.51-5.19-4.18-9.68,2.69-2.26,11.75-4.67,15.36-5.14Z"></path><path class="st5" d="M339.21,246.16c3.45-3.95,15.43-7.2,20.47-6.07,4.64,1.04,2.8,6.2.32,8.61-4.25,4.13-13.4,6.83-19.19,5.76-4.28-.79-4.05-5.5-1.6-8.3Z"></path><path class="st5" d="M359.23,201.18c2.89-4.16,16.11-8.53,20.84-6.97.95.31,2.38,2.09,2.47,3.06.44,4.65-9.94,10.27-13.81,11.16-5.69,1.32-14.82.4-9.5-7.25Z"></path><path class="st5" d="M407.42,217.61c.32.28,1.03,2.57,1.04,3.12.06,3.21-4.22,7.88-6.69,9.75-3.5,2.65-13.48,7.12-14.65.14-.65-3.91,7.64-10.91,10.97-12.32,2.04-.86,7.6-2.18,9.32-.69Z"></path><path class="st5" d="M259.94,219.14c2.26-.1,9.17.46,9.6,3.13,1.39,8.55-20.96,13.32-23.74,6.72s9.59-9.65,14.14-9.85Z"></path><path class="st5" d="M276.72,250.67c3.81-3.68,13.04-4.28,18.08-3.69,3.3.39,5.35,3.51,3.46,6.49-3.39,5.34-14.71,6.79-20.34,4.89-4.48-1.51-4.32-4.68-1.2-7.69Z"></path><path class="st5" d="M196.65,229.39c-.74-1.28.22-3.84.97-5.06,3.27-5.31,13.49-6.68,19.13-5.8,2.77.43,2.65,2.74,2.25,5.19-.77,4.72-10.9,8.37-15.19,8.29-1.5-.03-6.45-1.38-7.16-2.62Z"></path><path class="st5" d="M346.44,175.14c3.47-.36,10-1.04,9.08,4.07-.7,3.91-9.83,7.67-13.36,8.15-2.91.4-9.13,1.12-9.61-2.67-.72-5.68,9.42-9.09,13.88-9.56Z"></path><path class="st5" d="M300.92,187.13c2.82.05,6.56.89,5.91,4.38s-5.22,5.29-8.3,6.23c-4.21,1.29-14.02,2.65-12.39-4.4.93-4.01,11.22-6.28,14.78-6.22Z"></path><path class="st5" d="M425.91,175.11c7.91-1.41,4.68,7.11,1.84,10.84-1.6,2.1-7.16,7.24-9.85,6.46-.85-.25-2.63-2.39-2.78-3.28-.85-4.83,6.3-13.22,10.79-14.02Z"></path><path class="st5" d="M457.9,134.56c2.41-.64,5.11,1.32,5.53,3.8.65,3.89-3.25,17.03-8.61,16.13-6.12-1.02-1.76-18.64,3.08-19.93Z"></path><path class="st5" d="M204.44,252.14c2.54-.2,8.96-.3,8.96,3.5,0,5.2-8.28,5.98-12.13,5.87-2.65-.08-9.44-.77-7.47-5.01,1.37-2.95,7.67-4.12,10.64-4.36Z"></path><path class="st5" d="M431.37,127.59c2.12-.2,3.61,2.85,3.71,4.64.2,3.78-4.21,15.6-9.17,14.17-5.88-1.69.94-18.39,5.46-18.81Z"></path><path class="st5" d="M449.38,95.62c.97-.04,3.06,1.57,3.4,2.38,1.42,3.38-2.03,13.6-5.72,14.77-8.89,2.84-3.21-16.93,2.32-17.16Z"></path><path class="st5" d="M386.63,172.9c-1.93-1.24.52-6.32,1.94-7.63,1.94-1.79,11.07-6.05,13.02-3.58,2.17,2.75-1.65,5.89-3.6,7.5-2.33,1.93-8.51,5.54-11.36,3.71Z"></path><path class="st5" d="M472.37,58.6c1.77-.16,3.04,2.17,3.15,3.7.3,4.49-8.13,14.76-11.52,9.98-2.84-4.01,4.34-13.31,8.37-13.68Z"></path><path class="st5" d="M446.91,201.11c.72-.12,1.61-.29,2.31-.05,1.7.57.66,6.79.06,8.42-1.07,2.92-9.14,11.21-10.09,5.19-.64-4.08,3.21-12.78,7.73-13.56Z"></path><path class="st5" d="M164.41,244.61c2.82-.47,11.91-.85,10.42,3.9-1.77,5.66-17.45,6.88-15.19-.67.45-1.49,3.28-2.98,4.77-3.23Z"></path><path class="st5" d="M130.42,263.12c2.56-.38,8.07-.43,9.36,2.38,1.57,3.4-4.15,5.57-6.73,5.76-7.69.56-13.18-6.59-2.64-8.14Z"></path><path class="st5" d="M252.42,197.12c6.86-.22,7.63,5.85.61,8.12-13.5,4.36-11.47-7.77-.61-8.12Z"></path><path class="st4" d="M352.04,387.49c-.47.34-1.17,1.46-2,2-17.1,11.12-37.28,16.5-57.5,18,0-.33,0-.67,0-1,.66-.04,1.34.06,2,0,1.05-.09,1.82-.42,2.5-.5,1.51-.17,2.57-.27,4-.5.47-.08,1.04.08,1.5,0,1.17-.21,2.16-.8,3-1,2.55-.6,4.23-.63,6.5-1.5,1.65,1.22,4.6-.79,6.35-1.31,1.09-.32,2.72.84,2.65-2.19.82-.34,1.71-.66,2.5-1,.96,2.22,3.71,1,5.6.35,5.78-1.96,11.11-5.53,16.05-8.7.65-.42,2.25-.31,3.02-1.13.47-.49.23-1.29.39-1.43.21-.19,2.84-.5,3.44-.09Z"></path><path class="st5" d="M241.42,257.12c8.49-1.12,7.76,4.74,1.74,6.74-9.08,3.01-10.79-5.54-1.74-6.74Z"></path><path class="st5" d="M479.4,91.57c4.64-.73,3.33,8.12.32,9.85-.37.21-3.69,1.59-3.89,1.55-1.43-.32-1.97-3.74-1.68-5.12.38-1.82,3.3-5.98,5.25-6.28Z"></path><path class="st5" d="M292.54,406.49c0-1.77,2.32-1.47,2,0-.66.06-1.34-.04-2,0,0,.33,0,.67,0,1-15.9,1.18-32.74,1.04-47-6.5,1.07-2.35,2.06.27,3.36.89,2.6,1.26,6.57,1.89,9.38,2.52,11.23,2.53,22.39,2.89,34.26,2.09Z"></path><path class="st2" d="M482.04,67.99c.13,1.88-.84,4.31,1.72,3.53.48-.14.18-1.32.76-1.78.47-.38,4.28-.99,4.51-.75,1.4,1.45-1.76,1.51-2.3,1.95s-.5,1.38-.89,1.86c-3.04,3.72-2.84-.66-6.8.19l2-.5-1.49-4.5h2.5Z"></path><path class="st2" d="M505.04,25.49c1.02.93-2.04,1.08-.99,1.99,1.27,1.12,1.82-2.03,3-1.5,1.11,2.36-.73,3.48-.89,4.31-.21,1.08,1.54,1.98-1.1,1.7.05-.8.16-2.81-.78-3-1.3-.26-2.05,2.27-2.72,1.5-.12-.13-.64-3.38-.51-3.5.15-.13,1.15.15,1.62,0s1.34-2.46,2.38-1.51Z"></path><path class="st5" d="M321.04,399.49c.07,3.03-1.55,1.87-2.65,2.19-1.76.52-4.7,2.53-6.35,1.31,2.73-1.04,6.17-2.33,9-3.5Z"></path><path class="st2" d="M475.59,28.44c-.6-.97.99-4.2,2.19-3.94s.44,3.36,0,4c-.52.77-2.07.15-2.2-.06Z"></path><path class="st2" d="M490.97,64.56c.63,1.02-.38,3.66-1.42,2.93-.18-.13-1.31-2.89-1.01-3.49.17-.17,2.26.31,2.43.57Z"></path><path class="st2" d="M485.54,30c.17-.22,2.75-1.57,3-.25.61,3.2-4.19,1.81-3,.25Z"></path><path class="st2" d="M502.54,87.99c.86.69-2.76,3.07-3.49,1.24-.83-2.05,2.49-1.05,3.49-1.24Z"></path><path class="st2" d="M505.04,89.99c.14.14-.08,1.95,0,2.5-.9.02-3.85-1.35-2.74-2.01,1.15,1.36,1.74-1.48,2.74-.49Z"></path><path class="st5" d="M301.04,405.49c-1.43.23-2.49.33-4,.5-.54-1.64,2.87-1.25,4-.5Z"></path><path class="st2" d="M472.54,23.49v1.99s-1.99,0-1.99,0c-.34-.93,1.57-2.46,1.99-1.99Z"></path><path class="st5" d="M305.54,404.49c-.84.2-1.83.79-3,1-.13-1.69,2.09-2.08,3-1Z"></path><path class="st2" d="M523.54,5.99c1,.88-1.66,1.44-2.49,1.5-.47-1.32,2-1.93,2.49-1.5Z"></path><rect class="st2" x="494.04" y="72.49" width="1.49" height=".99"></rect><path class="st2" d="M497.04,71.49c.55.55-.45,1.54-.99.99s.45-1.54.99-.99Z"></path><path class="st2" d="M504.54,79.99c.55.55-.45,1.54-.99.99s.45-1.54.99-.99Z"></path><path class="st2" d="M508.04,24.49c.55.55-.45,1.54-.99.99s.45-1.54.99-.99Z"></path><path class="st2" d="M507.04,89.49c.55.55-.45,1.54-.99.99s.45-1.54.99-.99Z"></path><path class="st4" d="M109.04,133.99c1.56-.17,1.31-1.98,2.15-3.6.48-.93,1.07-1.98,1.65-2.85s4.39-5.62,4.84-5.91c1.71-1.09,5.89-1.11,7.86-.38,3.38,1.26,2.12,2.71,2.58,3.19.19.19,1.09-.1,1.32.13.48.46,3.75,11.26,4.07,12.71,4.37,19.64,2.13,42.11-.02,61.92-.64,5.95-2.09,13.14-2.46,19.04-.3,4.82.23,9.91,0,14.75-4.12-.33-7.89-1-11.76-2.49-18.25-7.04-21.8-15.19-33.27-29.12-.78-.95-2.46-1.53-2.5-1.68-.18-.72.2-1.96,0-2.94-.81-4.25-.99-15.33.03-19.43.1-.39.99-.32,1.01-.62.04-.75-.6-1.86-.47-3.4.33-3.98,2.39-9.17,3.68-12.85.36-1.04,2.46-7.66,2.85-7.9.22-.13,1.26-.14,1.41-.04.42.27,2.49,8.26,2.78,9.47,2.23,9.11,3.05,18.41,4.31,27.68,4.59,3.17,4.18-3.26,3.92-6.42-.37-4.56-1.31-10.82-2.13-15.37-1.4-7.79-5.76-16.22-3.1-23.87.28-.81,2.54-6.22,2.74-6.51.04-.06.65-.02.95-.34,1.83-1.91,4.44-3.21,5.43.21,3.1,10.67,5.48,22.3,6.62,33.38.23,2.25-.63,6.87,1.02,8.48,2.32,2.26,3.33-.43,3.51-2.46.95-10.36-.71-25.66-4.78-35.27-.76-1.81-4.14-6.63-4.24-7.51Z"></path><path class="st4" d="M74.04,185.99v-.5c.07.09.38.05.49.25l-.49.25Z"></path><path class="st0" d="M571.04,365.49c.11-.05.41-1.18,1.2-.99.38.09.87,1.07,1.67,1.36,4.25,1.53,11,2.25,15.4,2.19.13,0,.36,1.19,2.1,1.33,9.86.81,19.7,3.28,29.87,4.1,9.53.77,19.49.82,28.97-.02l5.77.02c-1.32.21-2.82.9-4.5.5l-10,1c-.83,0-1.67,0-2.5,0-1.85-.83-5.55-.85-7.5,0-.83,0-1.67.01-2.5,0-1.66-.87-4.07-.92-6-1-15.76-.66-32.28-2.88-47.6-6.65-1.33-.33-3.62-.67-4.4-1.85Z"></path><path class="st5" d="M639.04,374.99c-2.49,0-5.01.02-7.5,0,1.95-.85,5.65-.83,7.5,0Z"></path><path class="st2" d="M262.93,338.64c3.25-.17,13.07-.19,11.5,5-1.43,4.73-13.54,4.58-17.24,2.95-1.21-.53-4.09-2.79-3.44-4.08,1.46-2.92,6.27-3.71,9.18-3.86Z"></path><path class="st2" d="M208.92,338.12c2.12-.28,11.86.19,12.89,1.86.83,1.35-.59,3.51-1.81,4.22-3.25,1.92-12.83,1.96-15.72-.71-3.5-3.23,1.89-5.01,4.64-5.38Z"></path><path class="st2" d="M160.91,340.1c1.03-.08,4.59.29,5.82.45,2.46.31,10.04,1.42,8.75,5.13-1.04,3.01-14.06.68-16.22-1.66-1.67-1.81-.75-3.72,1.64-3.91Z"></path><path class="st2" d="M132.04,328.48c-.09.11-2.4.51-2.75.5-2.73-.02-10.1-3.91-8.53-6.99,1.68-3.3,8.22,2.64,10.8,2.75.22.17.6,3.6.48,3.74Z"></path><path class="st2" d="M446.94,293.59c2.59-.07,3.35,2.93,3.11,5.16-.5,4.59-8.32,11.9-12.52,13.48-6.62,2.49-10.84-.12-6.9-6.9,2.54-4.37,11.15-11.61,16.31-11.74Z"></path><path class="st2" d="M493.91,289.1c6.61-1.32,3.76,6.92,2.21,10.22-1.99,4.25-6.81,11.26-11.58,12.46-1.67.42-4.24-1.43-4.51-3.07-.77-4.73,9.3-18.7,13.88-19.61Z"></path><path class="st2" d="M586.4,276.55c1.04-.15,2.76,1.35,3.03,2.29,1.59,5.43-1.93,19.36-7.54,21.78-4.92,2.12-4.82-6.56-4.33-9.35.34-1.94,3.39-9.23,4.55-10.95.7-1.03,3.14-3.6,4.28-3.77Z"></path><path class="st2" d="M536.41,264.06c1.88-.37,3.33,1.52,3.6,3.21.88,5.54-2.69,17.2-8.95,18.51-8.03,1.67-2.32-12.38-.34-15.85.93-1.63,3.83-5.49,5.68-5.86Z"></path><path class="st2" d="M518.88,225.12c5.39-.24,2.53,10.14,1.4,12.86s-7.65,12.58-10.96,7.49c-3.09-4.76,4.46-20.11,9.56-20.34Z"></path><path class="st2" d="M432.91,337.61c2.24-.39,5.83-.52,6.9,1.9,1.39,3.17-5.86,8.04-8.25,9.25-2.73,1.39-11.76,4.54-12.53-.05-.81-4.84,9.93-10.42,13.87-11.1Z"></path><path class="st2" d="M502.92,336.63c9.6-2.22,5.19,6.18,1.63,10.13-2.96,3.28-14.43,11.16-14.05,2,.14-3.42,9.29-11.4,12.42-12.13Z"></path><path class="st2" d="M475.9,247.59c7.76-1.76,2.47,12.43.73,15.74-2.18,4.13-8.84,8.17-9.35,1.18-.3-4.01,4.53-15.99,8.63-16.92Z"></path><path class="st2" d="M496.39,192.1c8.69-2.01,4.99,11.9,1.85,15.85-10.68,13.42-9.34-14.12-1.85-15.85Z"></path><path class="st2" d="M547.37,330.32c-3.74,3.59-10.01,4.7-9.27-2.52.38-3.75,7.09-13,11.17-12.32,4.97.83.68,12.36-1.9,14.83Z"></path><path class="st2" d="M550.4,184.06c2.6-.71,4.4,3.55,4.64,5.68.4,3.48-.95,18.32-7,14.99-3.75-2.07-1.84-19.52,2.36-20.67Z"></path><path class="st2" d="M571.39,242.06c1.28-.33,2.46.83,2.91,1.92.75,1.84.52,7.17.2,9.22-.4,2.57-4.57,13.54-7.99,10.06s.33-20.03,4.88-21.2Z"></path><path class="st2" d="M517.37,151.6c5.29-.45,5.12,15.03,2.45,16.92-1.47,1.04-4.58.41-5.51-1.07-2.03-3.22-1.98-15.43,3.05-15.86Z"></path><path class="st2" d="M590.37,191.1c5.31-.49,3.95,16.17.66,18.62-4.55,3.38-4.82-8.35-4.5-11,.21-1.75,1.82-7.44,3.84-7.63Z"></path><path class="st2" d="M571.83,159.54c4.56-1.16,8.53,13.53,3.36,14.9-1.85.49-4.26-3.74-4.53-5.32s-.54-9.15,1.17-9.58Z"></path><path class="st0" d="M648.59,73.94c-.89-.57-.5-3.66,1.14-3.41,2.3.34,1.28,4.95-1.14,3.41Z"></path><path class="st0" d="M649.48,63.05c1.63,2.61-2.89,4.82-2.94-.06.66-.26,2.57-.53,2.94.06Z"></path><path class="st6" d="M44.54,241.49c.31.33.16-.05,1,1l-1-1Z"></path><path class="st6" d="M44.54,240.99l-.5-.5c.11.13.32.29.5.5Z"></path><path class="st7" d="M563.54,31.49c3.16,6.18,4.24,11.6,2.14,18.39-.49,1.58-2.53,4.65-2.64,5.61-.47.18-.85.5-1,1-.05.16.05.36,0,.5-6.58,6.99-16.88,12-26.5,12.5-.5.03-1-.02-1.5,0-4.08.16-7.65-.21-11.48-1.77-4.13-1.68-5.57-2.79-8.31-6.21-.39-.49-1.17-.47-1.2-.53-.15-.23-1.39-4.8-1.46-5.29-3.25-23.15,25.03-41.42,45.31-29.31,2.33,1.39,4.13,4.05,6.64,5.11ZM556.88,47.15c-2.26-3.05-9.53,1.36-12.62,1.81-2.48.36-6.32.06-8.99.05-1.86,0-6.44-1.34-5.76,2.71.62,3.68,12.19,4.03,15.22,3.7s15.31-4.04,12.15-8.28Z"></path><path class="st3" d="M562.04,56.99c-.73,2.04-.72,2.17-2.48,3.78-5.4,4.95-15.13,8.97-22.63,9.37-.84.04-1.6,1.09-1.39-.65,9.62-.5,19.92-5.51,26.5-12.5Z"></path><path class="st3" d="M548.04,7.99c-.96,2.08-.78,3.26-.49,5.5l3.99-2c-.67,1.28,2.09,1.81.51,2.76-.2.12-4.46.66-4.7.62-2.15-.41-1.27-2.7-1.55-3.36-.21-.5-1.11-.89-1.26-1.27-.29-.74,3.34-2.4,3.49-2.24Z"></path><path class="st3" d="M517.41,84.15c.25.11,1.46,1.41,1.11,1.82-.07.09-.87.03-1.22.53-.95,1.36.81,1.84-2.76.99l-.75,2.49c-.83-.43-1.06-2.54-.68-2.95.12-.12,1.86-.46,2.77-1.73.46-.64-.34-2.01,1.53-1.16Z"></path><path class="st0" d="M618.87,76.06c3.58-1.22,4.4,4.02.45,3.45-2.21-.32-2.02-2.91-.45-3.45Z"></path><path class="st0" d="M604.67,83.36c-1.89-1.89.96-4.32,2.66-2.92,2.16,1.78-.71,4.87-2.66,2.92Z"></path><path class="st0" d="M594.86,76.05c3.3-1.11,4.52,3.48.93,3.49-2.44,0-2.22-3.06-.93-3.49Z"></path><path class="st0" d="M607.06,70.04c1.06-.24,1.94-1.41,3.17-1.01,2.72.88-1.26,7.75-3.17,1.01Z"></path><path class="st0" d="M626.97,66.06c1.8,2.85-3.56,4.46-3.85,1.09-.16-1.9,3.3-1.95,3.85-1.09Z"></path><path class="st3" d="M523.54,76.99c-.18,1.89-.23,2.43,1.5,3.26l-.02.72c-1.55,1.19-2.3,1.25-3.97-.26,1.13-1.65.29-4.35,2.49-3.73Z"></path><path class="st3" d="M517.54,14.99c.85.85-2.52,3.36-2.82,3.42-1.14.23-2.88-1.61-2.18-2.42.19-.22,1.59.58,2.18.53.17-.01,1.27-2.25,2.81-1.53Z"></path><path class="st3" d="M516.04,77.99c-.07,1.16-.69,2.17-.83,3.32-.02.2.81,4.3-.67,2.68-.1-.11-.96-2.59-.99-2.79-.35-1.98.44-3.05,2.48-3.21Z"></path><path class="st3" d="M546.54,16.49c.17.18-.26,1.55.07,1.94.1.12,3.24.71,1.93,2.07-.15.15-3.81-1.38-3.94-1.55-.93-1.11,1.1-3.37,1.94-2.46Z"></path><path class="st3" d="M551.04,19.49c-.53-.48,1.16-1.6,1-2.24s-1.64-.43-1.5-1.25c5.08-1.79,2.24,5.06.5,3.49Z"></path><path class="st3" d="M520.54,78.49c.71.74-2.28,3.58-2.74,3.49-2.31-.46,2.01-4.26,2.74-3.49Z"></path><path class="st3" d="M562.53,90.49l.76,2.49c-.5-.31-2.15-.94-2.54-.88-.72.1-.31,1.89-1.71,1.39v-2c2.18.62,2.06-.75,3.49-1Z"></path><path class="st3" d="M545.03,88.49c.12.13.62,3.34.5,3.5-2.4.18-1.68-4.75-.5-3.5Z"></path><path class="st3" d="M520.04,28.49v-2.99c2.1-.09,2.1,3.09,0,2.99Z"></path><path class="st3" d="M550.04,92.99c-.84.75-2.25-.64-1.49-1.49.47-.54,2.03,1.02,1.49,1.49Z"></path><path class="st3" d="M563.04,55.49c0,.07.67.56.5,1h-1.5c.15-.5.53-.81,1-1Z"></path><path class="st3" d="M631.04,42.99c.55.55-.45,1.54-.99.99s.45-1.54.99-.99Z"></path><path class="st3" d="M633.04,43.5c.34.17-.29.85-.99.49-.34-.17.29-.85.99-.49Z"></path><path class="st3" d="M507.04,60.99c.41.37-.91,3.05-.81,3.76.08.59,1.91,1.63,1.31,2.23-1.67,1.67-2.58-5.23-2-6,.41.06,1.38-.1,1.5,0Z"></path><path class="st3" d="M499.54,41.99c.12,1.79-1.81,1.57-3,1.49v-2s3,.5,3,.5Z"></path><path class="st0" d="M556.88,47.15c3.15,4.25-9.25,7.96-12.15,8.28s-14.6-.02-15.22-3.7c-.68-4.05,3.9-2.72,5.76-2.71,2.67,0,6.51.31,8.99-.05,3.1-.46,10.36-4.86,12.62-1.81Z"></path><path class="st2" d="M511.96,41.07c.27.46,0,1.33.08,1.92-.29.33-2.25-.74-2.48-1.26-.85-1.99,2.15-1.09,2.41-.65Z"></path></svg> 