<?xml version="1.0" encoding="UTF-8"?> <svg xmlns="http://www.w3.org/2000/svg" id="_レイヤー_1" data-name="レイヤー_1" version="1.1" viewBox="-69.1800 0.0000 753.0400 376.5200"><defs><style> .st0 { fill: #2f4151; } .st1 { fill: #61a1b5; } .st2 { fill: #203545; } .st3 { fill: #d75d4b; } .st4 { fill: #efebda; } .st5 { fill: #9bc6cd; } .st6 { fill: #ece9d9; } .st7 { fill: #cacbb8; } .st8 { fill: #b3d7d8; } .st9 { fill: #485764; } </style></defs><path class="st2" d="M261.96,375.75s16.45,1.06,28.55,0,12.38-.23,21.98-4.45l-41.42-26.25-39.34-8.54,30.22,39.25Z"></path><polygon class="st4" points="203.22 244.81 232.67 315.01 288.72 334.51 338.92 288.75 203.22 244.81"></polygon><path class="st4" d="M495.35,283.91l-.15-.14c-10.09-9.51-21.8-17.16-32.93-25.21-25.31-16.93-52.97-32.82-82.89-38.73-8.17-1.27-15.13-2.58-23.87-3.69-11.61-1.28-23.31-2.47-34.51-5.76-31.41-9.6-58.94-35.33-69.8-66.74-2.12-5.8-3.39-12.02-4.32-18.05-.45-3.03-1.31-6.08-2.92-8.65-3.95-5.97-9.89-10.11-13.37-16.6-4.37-7.06-7.54-14.95-10.64-22.87-1.57-3.49-2.97-6.48-4.39-7.48l.21-1.5-13.59-20-35,6.65-97.04,108.61-4.76,17.65c-1.29,2.13-2.1,5.01-2.33,9.26-1.08,17.4.81,35.28,5.23,52.18,3.46,11.34,8.89,22.1,14.92,32.31,6.4,10.55,13.15,20.54,22.2,29.22,4.74,4.85,9.88,9.32,16.01,12.16,14.91,6.54,31.87,11.52,48.19,12.35,3.74.2,7.14.21,9.74-1.28,7.98-4.63,7.99-22.56,9.1-30.78.72-13.37,9.43-27.84,23.75-29.62,14.87-2.17,29.56,4.71,39.77,15.17,5.15,5.38,8.86,11.84,11.22,19.23,1.39,4.15,1.68,8.62,2.58,12.85,1.42,8.73,9.52,10.63,17.61,11.82,6.49,1.01,13.12,1.33,19.88,1.29,44.6-1.61,88.96-9.46,132.86-16.49,13.42-2.48,27.16-5.58,40.82-6.95,5.47-.55,10.93-.8,16.31-.65,3.16.11,7.7.06,9.83-1.67,5.37-4.84-3.69-13.92-7.72-17.9Z"></path><path class="st9" d="M65.53,48.36C90.98-1.94,135.5-15.58,180.49,19.71c11.71,8.53,17.8,19.59,21.33,33.47,14.1,29.8-16.67,52.79-37.14,69.38-18.86,16.44-40.78,17.45-64.72,15.94-15.48-.41-24.26-8.88-31.8-22.1-6.69-10.69-8.37-21.11-8-33.66.42-12.47-1.73-25.95,5.81-36.53"></path><path class="st7" d="M100.67,139.01c-.08,1.28-.57,4.47-1,5.5-2.82,6.74-14.91,23.16-20.75,27.5-4.64,3.45-7.45,6.56-13.16,5.5.48-3.16-4.62-6.78-4.09-10,5.43-1.25,12.92-5.82,17.1-9.53,5.77-5.12,9.98-16.07,14.4-22.06,0,0,2.43,5.76,2,3.09,1.83,0,3.67,0,5.5,0Z"></path><path class="st7" d="M183.67,301.51c.33,0,.67,0,1,0,.09,1.15.3,1.57.5,2.5.04.99-.06,2.01,0,3,.33,5.1,2.63,13.97,4.35,18.9,1.89,5.42,4.97,10.32,7.15,15.6-.28-.07-.69.06-1,0-28.25-5.5-51.16-9.4-76-25-.37-.24-.67-.79-1-1-1.57-1.01-2.67-2.09-4-3-.28-1.41.73-1.19,1.63-.88,2.06.7,5.25,2.79,7.38,3.63,9.98,3.93,27.61,8.4,38.25,9.25,3.17.25,12.73.53,15.5.01.58-.11,1.01-.17,1.15-.85l3.96-17.04-.37-5.12c.5,0,1,0,1.5,0Z"></path><path class="st3" d="M88.67,41.51s-.22.81.35.99c14.14,3.93,15.06,9.74,20.63,21.86,3.3,19.47-5.15,41.11-10.48,59.65-2.24,4.01-4.64,9.9-6,14.5-8,12.97-19,28.73-36,29.5-6.29.76-14,.75-20.16,0-.38-.09-.29-.96-.64-.98-3.39-.25-7.09-2.31-10.7-3.51-1.2-2.2-5.37-4.16-7.52-6.23s-2.87-4.03-5.48-5.77c-17.28-35.45,2.49-75.8,33.81-95.7,10.3-8.76,29.09-15.66,42.19-14.3Z"></path><path class="st7" d="M500.17,303.51c-.16.82-.83,2.63-1.52,3.21-.93.79-3.87,1.25-3.98,2.79-2.16.54-5.21,2.15-7.97,2.78-53.71,12.08-109.52,23.47-164.28,29.72-10.44,1.19-27.9,3.85-37.74,2.51l-15-9.5c-.18-.16-.33-.34-.5-.5l-6-6.5c-.06-.14.06-.36,0-.5-.7-1.6-1.39-3.25-1.85-4.92-.24-.86.28-1.88-1.15-1.58-.08-.28.07-.7,0-1,2.27.33,4.16,1.73,6.28,2.47,17.64,6.12,44.76,3.38,63.46,1.53,28.26-2.8,57.26-7.33,85.36-11.64,22.3-3.42,47.82-9.87,70.12-10.38,5.15-.12,9.74.64,14.77,1.52Z"></path><path class="st6" d="M232.67,111.51c.77.14,1.38.7,2,1,.34.16.53.33,1,.5.16.49.57.45,1,.5.17.02.35-.03.5,0-.12,1.06-.06,1.12,1,1,.04.07.34-.06.5,0,.42.65,1.59.63,2,1,.15.14-.54,1.46,1.25.99l.25-.49c.47.45.36.44.5,1,.86,3.45,0,7.63,1,11,.91,3.07,1.48,7.53,2.5,11.5.29,1.15.11,2.78.77,3.98l3.23,6.52c.87,2.39,1.93,4.7,3,7,7.34,15.78,20.51,30.41,35.5,39.5,3.79,2.3,7.65,4.79,11.65,6.61,2.56,1.17,10.02,4.72,12.85,4.89-.3,1.42.7.94,1.57,1.15,15.57,3.85,34.06,6.41,49.93,7.35,1.11.07,2.09.51,3.5.5,4.46,1.65,9.78,1.96,14.5,3,8.41,1.86,16.3,5.08,24,8,1.47,1.82,4.1,2.18,6,3,4.04,1.73,7.27,4.03,11,5.5-.29,1.34.69.99,1.38,1.35,3.98,2.05,7.78,4.36,11.62,6.15.72,1.73.49.64,2.16,1.58,4.88,2.75,13.2,7.79,16.84,11.42-4.82-.62-7.46-4.86-11.66-6.58-16.12-10.77-33.12-18.42-50.37-25.15-3.06-1.19-1.49-1.27-5.18-1.27-.26,0-1.85-1.57-4.56-1.9-3.1-.38-1.21-.53-2.56-1.02-.46-.17-3.3-.57-3.96-.61-1.96-.1-2.39,1.54-3.48-.98-.99-.33-.64.69-.84.86-.92.77-2.24-1.13-3.21-1.23-2.24-.24-1.02.6-3.58-.59-2.95-1.37-2.51.34-2.93.46-.86.23-2.7-1.18-4.52-1.31-3.18-.23-2.72-.85-4.97-1.13-6.96-.87-14.35-.83-21.23-1.77-2.09-.29-4.2-1.4-7.14-1.6-3.84-.26-1.54-.48-3.15-1.09-1.49-.57-3.92,0-4.86-.22-.57-.13-1.22-1.12-2.5-1.47-1.45-.39-2.33.24-2.98.13-.45-.08-.48-.95-.86-1.23-1.36-.99-2.27-.24-3.13-.47-.81-.21-1.3-1.09-2.16-1.2-.52-.06-1.47.52-1.67.38-.13-.1-.14-1.49-.63-1.89-.29-.24-5.57-2.37-6.78-2.98-19.43-9.75-39.98-31.22-48.49-51.47-1.17-2.78-1.97-7.78-3.21-10.32-.35-.71-1.29-.73-1.4-1.19-.35-1.37-.48-4.26-.48-5.37,0-.31-.91-.23-1.01-.62-.55-2.18.7-8.75-.26-10.18-.24-.37-1.08-.39-1.18-.54s.51-1.09.45-1.68c-.07-.66-.44-4.07-.59-4.22-.17-.16-1.03.12-1.31-.16-.31-.3.12-1.07-.44-1.41-.96-.57-7.23-2.85-7.19-3.81.02-.37.51-.57.53-.68h.5Z"></path><path class="st6" d="M456.17,257.51c7.77,3.19,14.22,9.35,21.03,14.23.72.52,1.69.57,1.97.77,1.17.84,2.32,1.67,3.5,2.5.68,2.95,4.5,4.05,6.32,5.69,3.04,2.74,10.26,10.39,11.89,13.86,2.47,5.28,1.13,8.32-1.2,12.95-.15.01-.8-.62-.96-.48-.17.15-.88,2.01-1.04,2.48-.09-.08-2.38-.02-2.5,0-.16.03-.35-.04-.5,0,.11-1.54,3.04-2,3.98-2.79.69-.58,1.36-2.39,1.52-3.21,1.91-9.55-4.97-14.61-11.26-20.52-2.07-1.95-4.7-4.44-7.14-6.48-4.57-3.82-11.01-7.33-14.75-10.82-3.41-3.18-7.57-4.41-10.52-7.16-.5-.46-.3-.98-.34-1.02Z"></path><path class="st9" d="M551.17,276.51l-.27.5c-.41.09-.61-.46-.73-.5.33,0,.67,0,1,0Z"></path><path class="st9" d="M554.17,277.51c-.23-.02-.46-.26-.5-.5.19.09.35.34.5.5Z"></path><path class="st1" d="M549.67,85.51h-1.5c.57-.01.02-.33,1.5,0Z"></path><path class="st2" d="M135.55,37.64c3.92-.62,6.74,0,9.87,2.37,4.12,3.12,5.65,7.93,3.87,12.87-4.11,11.39-25.25,8.5-23.07-6.57.57-3.96,5.54-8.07,9.34-8.66Z"></path><path class="st0" d="M107.17,119.51c-2.18-.21-4.4.17-6.5-1,3.36-10.25,8.4-26.54,9.5-37l.99.5c.04-1-.04-2,0-3,1.38,2.29.5,5.01.48,7.23-.1,8.84-1.02,17.68-2.6,26.39-.4,2.21-.91,4.87-1.87,6.88Z"></path><path class="st2" d="M107.17,119.51c11.86,1.12,20.23-1.17,31.38-4.87.47-.16,1.74-.52,1.62.37-5.78,3.24-11.43,6.59-17.89,8.37-5.67,1.56-10.25,1.76-16.11,1.64-2.3-.05-5.11.52-7-1,.14-.25,1.1-4.29,1.5-5.5,2.1,1.17,4.32.79,6.5,1Z"></path><path class="st0" d="M99.17,124.01c1.89,1.52,4.7.95,7,1l-3.5,13.5c-3.13.21-6.36-.15-9.5,0,.96-4.06,3.07-7.8,4.53-11.72.74-2,1.01-1.96,1.47-2.78Z"></path><path class="st2" d="M111.17,74.01l.5.5c0,.33,0,.67,0,1l-.5.5c-.02,1,.04,2,0,3s.03,2,0,3l-.99-.5c.03-.33-.03-.67,0-1l.49-.25-.49-.25c.14-2.05.05-4.42,0-6.5l.5-2v-1s.49,0,.49,0c.08,1.15-.09,2.35,0,3.5Z"></path><path class="st0" d="M110.17,73.51c-.02-.66.04-1.34,0-2h.5l-.5,2Z"></path><path class="st0" d="M111.17,76.01l.5-.5c0,.33-.5.46-.5.5Z"></path><path class="st0" d="M111.67,74.51l-.5-.5s.5.16.5.5Z"></path><path class="st0" d="M110.17,80.51c.01-.17-.01-.33,0-.5l.49.25-.49.25Z"></path><path class="st2" d="M612.78,299.65c-.84-1.63-1.47-1.9-2.61-2.65.35.61.8,1.46,1.26,2.4-.67-1.29-1.54-2.44-2.83-3.2-.02-.01-.04-.03-.05-.05.58.3,1.18.55,1.63.85-1.51-2.66-1.72-1.75-3.5-3,.02.24.09.46.18.66-1.62-1.46-3.33-2.93-5.46-3.4-.17-.04-.15-.03-.49-.11-.09-.02-.17-.06-.25-.09.02-.14.02-.32.03-.56-3.32-1.88-5.47-3.39-8.85-4.49-8.69-2.82-19.58-5.94-28.65-7.01.05.42.11.75.18,1.02-.52-.41-1.04-.82-1.7-1.03-3.4-.83-6.64-1.11-10.08-1.37-.48-.04-.93-.12-1.38-.2l6.97.58c-1.28-.3-1.6-.39-3-.5-.23-.02-.46-.26-.5-.5-.96-.47-1.46-.49-2.5-.5l-.27.5c-.41.09-.61-.46-.73-.5-5.99-2.18-15.06-3.07-21.71-4.57-.79-.18-1.55-.73-2.29.07.04.01.08.2.28.43-.76-.35-1.55-.71-2.37-.89-1.73-.38-3.54-1.04-5.17-1.1-.33,0-.65,0-.98-.02.25-.09.5-.22.74-.42-.12-.04-.33-.73-.9-.96-.95-.38-2.71-.21-3.46-.68-1.07-.68-5.41-7.77-6.47-9.3l-2.66-2.55c-.13-.22-.27-.44-.4-.66-.48-.64-.98-1.27-1.46-1.9.11.02.23.04.36.05-.72-1.16-1.26-1.65-1.5-2,.06.09.06.23.06.4-.3-.48-.59-.98-.82-1.52-.47-.69-.97-1.38-1.48-2.07.02.01.03.03.05.04-.29-.39-.57-.78-.87-1.17,0,.02,0,.04,0,.06-.85-1.11-1.73-2.23-2.65-3.34.93,1.1,1.82,2.2,2.65,3.27-.07-.31-.07-.68.06-1.18-2.5-.92-3.76-4.2-5.51-6.24-10.16-11.82-26-28.65-38.99-36.76.1.13.21.26.31.39-.23-.21-.46-.41-.7-.61-.18-.13-.36-.26-.55-.39.31.2.62.41.93.6-2.1-2.87-3.68-2.8-5.24-4.52-.57-.63-.68-1.92-.76-1.98-.09-.07-1.42-.07-2.17-.57-3.11-2.03-6.86-6.19-10.33-6.93.07.21.14.38.2.51-.25-.18-.51-.35-.76-.52.22-.02.42-.02.57,0-.09-.26.12-.9,0-1-.15-.13-1.1.09-1.5,0,.03.09.02.22.01.36-.31-.21-.62-.43-.93-.64.33.12.64.22.92.28-.07-.19.13-.53-.11-.88-.72-1.07-5.04-3.15-6.39-3.62.07.15.17.3.28.46-.34-.25-.69-.5-1.04-.73.22.08.47.17.76.27-1.18-2.48-12.24-8.44-15.5-10,.02.13.04.25.06.36-.01,0-.02-.01-.03-.02-.18-.14-.37-.27-.56-.39-1.17-2.51-4.74-3.49-6.97-4.45.02.13.05.24.08.35-.22-.17-.45-.33-.67-.48-.08-.12-.2-.28-.41-.36l.28.28c-.11-.08-.22-.17-.34-.23-.16-.08-.32-.16-.48-.23-.42-1.63-3.58-2.35-5.26-2.76-.33-.17-.67-.35-1-.51.1-.01.2,0,.31-.03-1.97-1.38-2.48-1.8-5-2.5.02.09.03.17.04.25-.14-.07-.29-.14-.42-.22-.03-.02-.06-.04-.09-.06.16,0,.31,0,.46.03-.31-1.93-.52-.54-1.5-1-.02.08-.01.13-.02.2-.08-.05-.16-.09-.25-.14-.17-.05-.37-.13-.55-.19.11-.09.22-.21.32-.38-3.39-2.01-7.27-4.29-11.04-5.36,0,0,0,0,0,0-40.89-19.44-84.54-28.16-128.77-36.54-1.81-.36-3.63-.93-5.36-1.38-.61-.15-1.37-.11-1.67.42-.94,2.72,1.1,6.42.2,9.29l-.02.12c-.03,2.74,1.01,5.68,1.5,8.68.22,1.03.69,1.87,1.16,2.73-.13,0-.29,0-.49.04.29,1.15.11,2.78.77,3.98l3.23,6.52c-.23-.64-.46-1.33-.68-2.04.61,1.91,1.29,3.78,2.12,5.59.45,1.31,1.26,2.37,2.1,3.44-.15-.03-.32-.04-.54,0,7.34,15.78,20.51,30.41,35.5,39.5.05-.21.04-.37.02-.51,6.29,5.08,14.04,8.34,21.55,11.2,1.66.72,3.12.48,4.69.49-.67.16-1.37.34-1.76.32-.3,1.42.7.94,1.57,1.15,15.57,3.85,34.06,6.41,49.93,7.35.03-.19.04-.34.04-.47.62.25,1.25.51,1.97.67.73-.03,1.41,0,2.08.06-.26.12-.48.23-.59.23,4.46,1.65,9.78,1.96,14.5,3,.05-.24.05-.42.02-.57.84.48,1.67.97,2.7,1.18,7.05,1.81,13.8,4.52,20.32,6.98,1.05.42,2.2.64,3.3.97-.9-.2-1.77-.34-2.34-.55,1.47,1.82,4.1,2.18,6,3-.04-.24-.13-.46-.24-.65,3.68,2.66,7.94,4.63,11.95,6.43.09.04.18.08.27.12-.36-.15-.69-.28-.98-.4-.29,1.34.69.99,1.38,1.35,3.98,2.05,7.78,4.36,11.62,6.15-.08-.19-.05-.36-.08-.56.68.64,1.37,1.16,2.23,1.6-.71-.35-1.43-.7-2.15-1.04.72,1.73.49.64,2.16,1.58,4.88,2.75,13.2,7.79,16.84,11.42.17.17.33.33.5.5,7.77,3.19,14.22,9.35,21.03,14.23.72.52,1.69.57,1.97.77-.02-.14-.17-.4-.38-.71,1.27,1.39,2.57,2.42,3.94,3.4.8,2.81,4.48,3.9,6.26,5.5,3.04,2.74,10.26,10.39,11.89,13.86,2.47,5.28,1.13,8.32-1.2,12.95.45-.03.84-.18,1.19-.4-.72.69-1.68,1.45-1.61,2.49.37,2.19,3.74,1.78,5.43,2.09,2.62.48,4.93,1.98,7.55,2.95.56.18,1.11.39,1.66.59,1.33,1.39,3.3,2.43,4.96,3.37,9.39,5.36,18.83,9.92,28.84,13.91.02-.09.02-.16.03-.24.5.32,1.01.65,1.55.99,5.27,2.34,9.61,3.61,15.19,4.91.73.17,1.48.23,2.23.21.23,0,.26,0,.65-.03-.05.05-.1.1-.16.16.06.01.25.74.83.9,5.73,1.58,18.92.59,24.68-1.17.82-.25,1.78.11,1.49-1.23-.09-.01-.18-.05-.28-.1.1,0,.21.02.31.01.37-.02.73-.15,1.09-.33-.05.13-.09.27-.12.42,2.65-.2,4.64-2.39,6.33-4.18.24-.26.1-.74.17-.82-1-.18-1.78-1.12-2.46-2.18.23.33.47.65.75.97.54.65,1.47,1.13,2.07.56.14-.12.26-.28.37-.45-.08.2-.16.41-.24.6.52-.63,1.83-.72,2.5-3,.51-1.73.73-5.7.5-7.5-.13-.98-2.23-5.79-2-6,2.71.22,4.1.1,6.5-1,0-.02-.03-.02-.04-.04,1.09-.27,2.07-.99,2.85-1.83.34-.42.54-.91.69-1.42,0,.1,0,.19,0,.29,2.38-4.02,1.7-7.31-.39-11.35ZM254.89,158.58c.24.35.46.7.66,1.08,8.28,14.46,17.89,24.86,30.88,34.61-13.77-10.1-22.91-20.62-31.54-35.7ZM317.51,208.9c-.39-.17-.56-.5-.69-.8.4.19.79.4,1.19.55.8.29,1.68.36,2.54.46-.93.08-2.05.23-3.04-.21ZM322.64,209.6c.08.04.17.06.25.1.71.26,1.28.23,1.8.19-.06.24-.08.47-.11.5-.49.41-1.25-.27-1.94-.79ZM325.67,209.88c.24.03.49.08.75.21.14.07.3.13.46.19-.28.14-.59.3-.91.28-.26-.02-.29-.38-.3-.67ZM362.92,215.53c-4.36-.56-8.22-1.43-12.06-1.57-7.5-.27-15.71-1.96-22.89-2.92-.17-.02-.24-.24-.29-.46.75.25,1.56.49,2.3.66,5.19.77,10.83,1.78,16.28,2.31,5.17.32,9.78.78,15.12,1.67.73,0,1.36.12,1.95.31-.14.01-.28.01-.42,0ZM370.68,216.98c.58.06,1.16.11,1.75.12-.59.16-1.07.43-1.47.43-.17,0-.18-.27-.27-.54ZM374.4,217.15c1.87.2,3.89.79,5.65,1.15.31.06.61.16.89.27-1.51-.37-4.72-1.09-6.54-1.42ZM394.28,164.03c.06.03.12.08.19.12-.14-.07-.29-.14-.43-.21.08.02.16.05.25.09ZM495.11,242.81c.11.13.22.26.33.38-.11-.13-.22-.26-.33-.38ZM462.26,210.33c-.25-.22-.49-.44-.74-.66-.55-.36-1.07-.44-1.53-.51.34-.12.66-.22.85-.2.11.01.74.66,1.42,1.37ZM458.21,207.22c.22.34.32.74.38,1.12-.35-.55-.63-1.36-1.2-2.03-.02-.02-.03-.04-.05-.05.38.37.71.7.87.96ZM437.81,191c.36.28.72.57,1.08.85-.52-.38-1.04-.76-1.57-1.14.13.05.29.13.48.29ZM415.04,175.63c.12.08.22.28.33.51-.3-.22-.6-.45-.91-.67.2.01.4.05.58.15ZM420.2,178.95c.32.05.64.08.97.06.11.09-.06.47-.23.82-.21-.31-.4-.61-.75-.87ZM432.74,240.64c-1.28-.68-2.7-1.37-4.09-2,1.4.61,2.78,1.27,4.09,2ZM463.79,260.64c3.84,2.76,7.63,5.57,11.42,8.35-.15-.02-.28-.05-.38-.13-3.68-2.77-7.34-5.53-11.04-8.22ZM570.69,281.74c7.88.87,21.1,4.81,28.28,8.23.33.16.62.47.86.77-7.96-4.42-19.55-7.37-27.92-8.72-.96-.09-1.88,0-2.77-.1.49-.11,1.02-.24,1.56-.18ZM566.42,280.47c.74.1.97.59,1.15,1.01-.03-.01-.05-.02-.08-.04-.78-.48-1.84-.52-2.69-.7.44-.16.97-.36,1.63-.27ZM549.4,277.26c-1.39-.32-2.72-.71-4.26-.68-.86-.03-1.92,0-2.69-.04-.12,0-.23-.03-.33-.05,1.81-.04,5.87-.29,7.28.77ZM540.34,275.1c.49.21.65.61.74.91-.49-.34-.96-.77-1.72-1.07-2.57-.79-5.55-.87-8.24-1.27-.97-.14-1.88-.24-2.77-.49,3.56.71,9.69.91,11.98,1.92ZM510.66,265.34c-1.01-1.33-1.92-2.77-2.78-4.23.89,1.46,1.84,2.94,2.78,4.23ZM553.15,309.68s-.03.06-.05.09c0-.03.02-.06.05-.09ZM553.24,310.03s0,0,0,0c.14.06.27.08.4.08-.15.02-.3,0-.39-.07ZM554.09,309.94s.05-.05.08-.07c-.02.03-.05.05-.08.07ZM553.16,309.67s.05-.06.09-.08c-.03.03-.06.05-.09.08ZM553.72,309.41c.15-.02.29-.01.37.03l.12.07s0,.03.02.05c-.02-.02-.03-.04-.05-.06-.16-.08-.31-.1-.45-.1ZM554.19,309.83s.02-.04.04-.07c0,.02-.02.04-.04.07ZM554.26,309.67s0-.01,0-.02c0,0,0,.01,0,.02ZM584.44,338.07c-.42.01-.77-.06-1.08-.17.19.02.39.04.58.04.27-.01.68-.08,1.1-.14-.12.15-.3.27-.61.28ZM588.06,338.22c.11.02.21.05.32.06.48.06.83-.15,1.16-.43.02.2.06.42.13.66-.54.11-1.09-.05-1.61-.29ZM598.64,334.09c.72-1.13-.92-2.58-1.97-3.3-6.76-4.83-17.12-7.29-24.87-11.1-4.39-2.24-13.26-7-16.35-8.63-.15-.1-.22-.16-.18-.18.04,0,.09.01.13.01l14.17,7.47c8.28,4.68,20.76,7.13,28.07,12.93,1.98,1.57,1.83,2.25,1,2.8ZM603.78,321.67c-.18-1.65-.61-3.25-1.34-4.69-.69-1.43-1.91-2.5-3.26-3.33-14.67-9.12-30.84-14.31-46.69-20.82-1.81-.77-3.86-1.48-5.56-2.46-.02-.02-.04-.03-.06-.04,2.05.99,5.13,2.18,7.19,3.01,16.1,6.53,32.38,11.8,47.1,21.4,1.57,1.95,2.37,4.38,2.61,6.91ZM603.85,322.77c-.02-.36-.03-.73-.07-1.09.03.36.06.72.07,1.09ZM606.68,314.01c-.05-.05.01-.41,0-.85.19.31.42.57.76.71.09.03.19.04.28.07-.47.13-.88.24-1.04.07ZM612.08,300.81c-.08-.19-.16-.38-.25-.57.84,1.79,1.64,3.75,1.82,5.05.06.45.06.88.04,1.31,0-1.94-.74-3.87-1.6-5.78ZM611.61,299.76c.03.06.06.12.09.19-.03-.06-.06-.13-.09-.19Z"></path><path class="st2" d="M501.1,249.83c-.32-.42-.74-.69-1.12-.97.79,1.07,1.54,2.13,2.19,3.15-.31-.45-.47-1.4-1.07-2.18Z"></path><path class="st8" d="M90.67,336.51c-.17-.16-.36-.31-.5-.5.24.07.41.27.5.5Z"></path><path class="st5" d="M560.42,339.01c.32.17.32.33,0,.5v-.5Z"></path><path class="st2" d="M126.24,315.81c-.38-2.15-2.87-3.87-4.78-5.2-2-1.37-3.98-2.74-5.88-4.27-8.58-6.96-17.22-17.62-23.64-27.04-1.78-2.62-3.45-5.28-5.01-8.03-1.55-2.24-3.57-7.99-5.95-7.91-1.03.22-1.81,2.35-2.55,5.24-.86,3.5-1.81,6.95-3,10.33-3.05,9.32-8.85,18.55-18.27,22.26-5.18,2.16-10.73,3.04-16.09,4.61-9.75,2.79-20.95,6.41-30.46,11.48-4.14,2.51-10.29,5.34-10.61,10.32,1.31,10.45,27.38,8.9,35.52,9.11,18.19-.1,36.36-.99,54.52-2.16,5.5-.3,10.88-1.58,15.89-3.88,4.77-2.3,20.86-9.06,20.33-14.75l-.02-.12Z"></path><path class="st9" d="M313.38,368.01c-3-7.69-11.17-11.71-17.99-15.69-3.52-2.57-7.57-4.71-11.05-7.34-.42-.55.55-.48-.28-.98-10.99-6.75-23.9-13.46-23.83-27.43,2.16-22.2-12.51-39.42-32.13-47.81-1.5-1.24-2.04-1.61-3.9-1.83-8.55-.95-18.47-2.25-25.77,1.52-9.63,5.81-14.8,16.24-15.33,26.94-.58,1.29.05,1.85.32,3.37.03,2.6-.46,4.91,1,6.89.83,12.57,4.76,25.44,11.02,36.68,6.81,12.01,17.86,20.2,31.18,24.23,6.69,4.33,33.22,11.53,39.35,8.47-2.29-2.92-24.33-21.72-16.05-16.91,9.6,6.1,20.7,10.52,29.49,17.62,4.3,2.15,12.94-.84,17.58-.73-2.32,1.87-24.46-20.54-25.69-17.33,8.24,3.08,17.41,7.19,25.15,11.33,3.43,1.96,7.12,5.94,11.35,4.61,2.75-.8,6.35-2.07,5.61-5.6Z"></path></svg> 